<svg width="183" height="128" viewBox="0 0 183 128" fill="none" xmlns="http://www.w3.org/2000/svg">
<path d="M167.818 84.746C167.967 84.746 168.174 84.746 168.421 84.8054C169.014 84.9143 169.212 85.0429 169.232 87.0913C169.291 90.6636 169.232 94.8594 169.232 97.927C169.232 98.6791 169.291 98.8275 169.479 98.8275C169.667 98.8275 169.775 98.7286 170.161 98.303C170.952 97.452 178.72 87.8038 179.689 86.5866C179.689 89.773 179.689 92.8802 179.62 95.938C179.62 97.3333 179.521 98.115 178.987 98.2338L178.444 98.303C178.206 98.303 178.167 98.3624 178.167 98.4515C178.167 98.5405 178.216 98.5603 178.444 98.5603C179.116 98.5603 179.709 98.5603 180.114 98.5603C180.519 98.5603 182.091 98.5603 182.723 98.5603C182.931 98.5603 183 98.5603 183 98.4317C183 98.303 182.941 98.3228 182.723 98.303C182.506 98.2832 182.091 98.303 182.002 98.2338C181.399 98.1348 181.251 97.6301 181.231 96.2546C181.181 92.7714 181.181 89.4563 181.181 85.9731C181.181 84.3502 181.083 84.2018 180.895 84.2018C180.707 84.2018 180.381 84.4986 179.689 85.3398C177.87 87.5762 173.067 93.5333 170.793 96.3437V86.6856C170.793 85.1023 170.961 84.8945 171.485 84.7856C171.645 84.7525 171.807 84.7327 171.97 84.7262C172.177 84.7262 172.207 84.6471 172.207 84.5778C172.207 84.5085 172.118 84.469 171.891 84.469C171.377 84.469 170.625 84.5184 170.032 84.5184C169.736 84.5184 168.57 84.469 167.986 84.469C167.789 84.469 167.621 84.4689 167.621 84.5976C167.621 84.7262 167.67 84.7262 167.818 84.746ZM172.76 82.4206C173.447 82.8787 174.259 83.1105 175.083 83.0836C175.86 83.0863 176.626 82.8994 177.315 82.5391C178.004 82.1787 178.595 81.6557 179.037 81.0154C179.155 80.8669 179.135 80.7383 179.037 80.7383C178.938 80.7383 178.948 80.7383 178.799 80.9065C178.453 81.3582 178.002 81.7192 177.485 81.9587C176.969 82.1982 176.403 82.3091 175.834 82.282C174.045 82.282 173.156 81.4706 173.017 80.8373C173.017 80.7383 172.968 80.7185 172.909 80.7185C172.663 80.8472 172.453 81.0341 172.296 81.2628C172.244 81.3392 172.213 81.4279 172.207 81.52C172.228 81.7004 172.287 81.8741 172.381 82.0295C172.475 82.1849 172.601 82.3182 172.75 82.4206H172.76ZM145.975 84.746C146.197 84.748 146.419 84.7712 146.637 84.8153C147.052 84.9143 147.24 85.2309 147.27 85.8642C147.299 86.4976 147.27 86.9824 147.27 89.8819V93.1672C147.27 94.9484 147.27 96.4229 147.181 97.2046C147.102 97.7489 146.993 98.1942 146.617 98.2536C146.456 98.2653 146.294 98.2653 146.133 98.2536C145.965 98.2536 145.935 98.3327 145.935 98.3822C145.935 98.4317 146.024 98.5109 146.232 98.5109C146.785 98.5109 147.883 98.5109 147.981 98.5109C148.08 98.5109 149.247 98.5109 150.265 98.5109C150.472 98.5109 150.541 98.5109 150.541 98.3822C150.541 98.2536 150.492 98.2536 150.324 98.2536C150.156 98.2536 149.84 98.2536 149.573 98.1843C149.019 98.1051 148.911 97.6994 148.851 97.1947C148.762 96.413 148.762 94.9385 148.762 93.1573V91.2475C150.658 93.5148 152.695 95.6599 154.861 97.6697C155.254 98.02 155.718 98.2809 156.221 98.4346C156.724 98.5884 157.255 98.6313 157.776 98.5603H159.16C159.358 98.5603 159.437 98.5603 159.437 98.4317C159.437 98.303 159.328 98.303 159.18 98.303C158.999 98.3186 158.817 98.3186 158.636 98.303C157.747 98.1348 157.094 97.7192 155.572 96.3239C154.693 95.5026 151.312 92.0589 150.136 90.7725C150.62 90.2381 152.736 88.1303 154.376 86.547C154.923 85.9152 155.596 85.406 156.353 85.0528C156.67 84.9331 157.003 84.8597 157.341 84.8351C157.509 84.8351 157.539 84.7757 157.539 84.7064C157.539 84.6372 157.49 84.5778 157.233 84.5778C156.976 84.5778 155.829 84.6273 155.256 84.6273C154.683 84.6273 154.683 84.5778 154.139 84.5778C153.971 84.5778 153.862 84.5778 153.862 84.6867C153.862 84.7955 153.862 84.7955 154.03 84.8549C154.072 84.883 154.108 84.9194 154.135 84.962C154.163 85.0046 154.181 85.0523 154.189 85.1023C154.189 85.32 154.119 85.508 153.002 86.6658C151.886 87.8236 149.336 90.4954 148.762 91.0594V89.8819C148.762 86.9824 148.762 86.458 148.762 85.8642C148.762 85.2705 148.95 84.8747 149.454 84.7856H149.859C150.027 84.7856 150.067 84.7262 150.067 84.657C150.067 84.5877 149.978 84.5283 149.77 84.5283C149.217 84.5283 148.041 84.5778 147.952 84.5778C147.863 84.5778 146.608 84.5283 145.975 84.5283C145.767 84.5283 145.678 84.5283 145.678 84.6768C145.678 84.8252 145.817 84.746 145.965 84.746H145.975ZM160.445 84.746C160.638 84.7486 160.83 84.7718 161.018 84.8153C161.433 84.9143 161.621 85.2309 161.651 85.8642C161.68 86.4976 161.651 86.9824 161.651 89.8819V93.1672C161.651 94.9484 161.651 96.4229 161.562 97.2046C161.483 97.7489 161.374 98.1942 160.998 98.2536C160.837 98.2658 160.675 98.2658 160.514 98.2536C160.346 98.2536 160.316 98.3129 160.316 98.3624C160.316 98.4119 160.405 98.5109 160.613 98.5109C161.167 98.5109 162.343 98.5109 162.432 98.5109C162.521 98.5109 163.717 98.5109 164.735 98.5109C164.942 98.5109 165.021 98.5109 165.021 98.3624C165.021 98.214 164.962 98.2536 164.794 98.2536C164.626 98.2536 164.29 98.2536 164.033 98.1843C163.479 98.1051 163.361 97.6994 163.311 97.1947C163.212 96.413 163.212 94.9385 163.212 93.1573V89.8819C163.212 86.9824 163.212 86.458 163.212 85.8642C163.212 85.2705 163.4 84.8747 163.904 84.8054C164.057 84.7709 164.213 84.751 164.369 84.746C164.438 84.746 164.517 84.746 164.517 84.6372C164.517 84.5283 164.418 84.4887 164.221 84.4887C163.657 84.4887 162.491 84.5382 162.392 84.5382C162.293 84.5382 161.127 84.4887 160.514 84.4887C160.307 84.4887 160.218 84.4887 160.218 84.6372C160.218 84.7856 160.356 84.746 160.435 84.746H160.445ZM130.606 91.2969C130.562 92.3246 130.739 93.3497 131.127 94.3025C131.514 95.2553 132.101 96.1135 132.849 96.8187C134.565 98.2502 136.769 98.9597 138.997 98.7978C140.126 98.8322 141.253 98.6886 142.338 98.3723C142.674 98.2239 142.713 98.1843 142.822 97.8281C143.01 97.0426 143.149 96.2461 143.237 95.4432C143.237 95.2948 143.237 95.1661 143.109 95.1661C142.98 95.1661 142.951 95.2354 142.921 95.4432C142.822 96.0135 142.585 96.5506 142.229 97.0067C141.781 97.3727 141.264 97.6439 140.708 97.8038C140.153 97.9637 139.571 98.009 138.997 97.9369C138.107 97.937 137.226 97.76 136.404 97.4163C135.583 97.0726 134.838 96.5689 134.213 95.9346C133.587 95.3003 133.094 94.548 132.762 93.7213C132.429 92.8945 132.264 92.01 132.276 91.1188C132.194 90.2358 132.301 89.3453 132.591 88.5073C132.88 87.6692 133.346 86.903 133.956 86.2601C134.599 85.6267 135.755 84.9044 138.226 84.9044C139.549 84.8524 140.854 85.2232 141.952 85.9632C142.206 86.2092 142.406 86.5049 142.54 86.8318C142.675 87.1586 142.74 87.5097 142.733 87.8632C142.733 88.1204 142.733 88.259 142.881 88.259C143.03 88.259 143.03 88.1402 143.049 87.8632C143.069 87.5861 143.049 86.5569 143.109 85.9434C143.168 85.3299 143.198 85.0528 143.198 84.9538C143.198 84.8549 143.198 84.7658 143.03 84.746C142.338 84.657 141.764 84.5976 141.053 84.469C140.161 84.3169 139.259 84.2408 138.355 84.2413C135.488 84.2413 133.788 85.1221 132.681 86.2205C131.361 87.5819 130.614 89.3995 130.596 91.2969H130.606ZM86.5432 98.2239C86.474 98.2239 86.4147 98.2833 86.4147 98.3624C86.4147 98.4416 86.6223 98.4713 86.9781 98.4911C88.2532 98.4911 89.6171 98.4911 89.9433 98.4911C90.2695 98.4911 90.3189 98.4911 90.3189 98.3426C90.3189 98.1942 90.22 98.2338 90.1113 98.2338C89.8668 98.2324 89.6238 98.1958 89.3898 98.1249C88.9944 98.0161 88.4607 97.7093 87.7886 96.0567C86.652 93.2266 83.7263 85.5278 83.4496 84.8252C83.1728 84.1226 83.1531 84.1523 83.0443 84.1523C82.9356 84.1523 82.8566 84.2611 82.6292 84.8846L78.3495 96.5119C78.0135 97.5015 77.6478 98.1546 76.7878 98.2635C76.6397 98.2724 76.4912 98.2724 76.3431 98.2635C76.175 98.2635 76.0861 98.2635 76.0861 98.3723C76.0861 98.4812 76.1948 98.5207 76.432 98.5207C77.3117 98.5207 78.3297 98.5207 78.5373 98.5207C78.7449 98.5207 79.5257 98.5207 79.9309 98.5207C80.099 98.5207 80.267 98.5208 80.267 98.3723C80.267 98.2239 80.2077 98.2635 80.0298 98.2635H79.8617C79.5455 98.2635 79.1896 98.0952 79.1896 97.7291C79.2065 97.299 79.2933 96.8745 79.4466 96.4724L80.5635 93.1771C80.5757 93.136 80.6003 93.0996 80.6339 93.0731C80.6675 93.0465 80.7085 93.031 80.7513 93.0287H84.7048C84.742 93.027 84.7787 93.0378 84.8091 93.0593C84.8395 93.0808 84.862 93.1118 84.8729 93.1474L86.6025 97.7291C86.7607 98.0655 86.652 98.2338 86.5334 98.2635L86.5432 98.2239ZM84.5665 92.3657H80.9588C80.8995 92.3657 80.86 92.3657 80.8995 92.2271L82.5403 87.2001C82.6292 86.9231 82.7182 86.9231 82.817 87.2001L84.5862 92.2271C84.606 92.3459 84.606 92.4052 84.5072 92.4052L84.5665 92.3657ZM97.7219 126.664C97.5228 126.663 97.3242 126.643 97.1289 126.605C96.7236 126.515 96.6643 126.337 96.5951 125.892C96.526 125.447 96.5358 124.239 96.5358 123.032V120.697C96.5358 118.639 96.5358 118.282 96.5358 117.857C96.5358 117.431 96.605 117.174 97.0597 117.115H97.3463C97.4649 117.115 97.5143 117.115 97.5143 117.006C97.5143 116.897 97.4353 116.897 97.2771 116.897C96.8422 116.897 95.9428 116.897 95.8736 116.897C95.8044 116.897 94.9445 116.897 94.4602 116.897C94.2922 116.897 94.2329 116.897 94.2329 117.006C94.2329 117.115 94.2922 117.095 94.4009 117.115C94.5195 117.109 94.6382 117.109 94.7567 117.115C95.0829 117.184 95.1817 117.412 95.2114 117.837C95.2411 118.263 95.2114 118.629 95.2114 120.687V123.022C95.2342 123.97 95.2078 124.918 95.1323 125.862C95.1323 126.238 95.0434 126.545 94.7765 126.614C94.6516 126.626 94.5258 126.626 94.4009 126.614C94.2626 126.614 94.2032 126.614 94.2032 126.723C94.2032 126.832 94.312 126.832 94.4503 126.832C94.8852 126.832 95.8044 126.832 95.844 126.832C95.8835 126.832 96.8324 126.832 97.6231 126.832C97.7812 126.832 97.8405 126.832 97.8405 126.723C97.8405 126.614 97.8504 126.664 97.7219 126.664ZM111.154 126.664C110.959 126.657 110.764 126.637 110.571 126.605C110.126 126.545 110.017 126.258 109.998 125.199C109.998 122.725 109.948 120.37 109.938 117.877C109.938 116.788 109.869 116.659 109.721 116.659C109.573 116.659 109.316 116.897 108.802 117.501C107.616 118.846 104.176 122.953 102.308 125.17V118.451C102.308 117.342 102.446 117.174 102.812 117.115H103.168C103.316 117.115 103.356 117.045 103.356 116.986C103.356 116.927 103.277 116.897 103.099 116.897C102.713 116.897 102.18 116.897 101.685 116.897C101.468 116.897 100.529 116.897 100.114 116.897C99.9458 116.897 99.8173 116.897 99.8173 117.006C99.8173 117.115 99.8173 117.095 99.9557 117.115H100.41C100.865 117.115 101.013 117.253 101.033 118.698C101.033 121.261 101.033 124.299 101.033 126.446C101.033 126.961 101.033 127.06 101.221 127.06C101.409 127.06 101.438 127.06 101.745 126.713C102.229 126.219 107.971 119.371 108.663 118.5C108.663 120.697 108.663 122.844 108.594 124.952C108.594 125.942 108.535 126.525 108.11 126.624C108.001 126.624 107.853 126.624 107.744 126.684C107.635 126.743 107.527 126.733 107.527 126.793C107.527 126.852 107.527 126.882 107.744 126.882C108.219 126.882 108.673 126.882 109.019 126.882H111.045C111.194 126.882 111.263 126.882 111.263 126.793C111.263 126.704 111.322 126.664 111.154 126.664ZM91.5544 121.587C90.6449 121.185 89.649 121.019 88.6584 121.103H88.3322C88.2828 121.103 88.2729 121.103 88.2729 121.043V120.697C88.2729 118.639 88.2729 118.282 88.2729 117.857C88.2729 117.431 88.3816 117.194 88.7375 117.115C88.8524 117.102 88.9684 117.102 89.0834 117.115C89.1625 117.115 89.2317 117.115 89.2317 117.016C89.2317 116.917 89.1723 116.897 89.034 116.897C88.5991 116.897 87.6601 116.897 87.6206 116.897C87.581 116.897 86.7113 116.897 86.2467 116.897C86.0787 116.897 86.0095 116.897 86.0095 117.006C86.0095 117.115 86.0787 117.115 86.1874 117.115C86.3057 117.103 86.4249 117.103 86.5432 117.115C86.8398 117.184 86.9584 117.412 86.9979 117.837C87.0374 118.263 86.9979 118.629 86.9979 120.687V123.022C87.0257 123.976 86.9993 124.931 86.9188 125.882C86.9188 126.248 86.8101 126.595 86.5432 126.644C86.425 126.657 86.3057 126.657 86.1874 126.644C86.0787 126.644 86.0095 126.644 86.0095 126.733C86.0095 126.822 86.0886 126.842 86.2368 126.842C86.6717 126.842 87.5514 126.842 87.6008 126.842C87.9962 126.842 89.0537 126.921 89.5776 126.921C89.9916 126.962 90.4097 126.919 90.8068 126.795C91.2039 126.67 91.5719 126.467 91.8891 126.198C92.2063 125.928 92.4661 125.597 92.6531 125.225C92.8401 124.853 92.9505 124.447 92.9776 124.032C93.011 123.522 92.8938 123.014 92.6407 122.57C92.3876 122.127 92.0098 121.768 91.5544 121.538V121.587ZM89.8741 126.466C89.4678 126.478 89.0637 126.404 88.688 126.248C88.5641 126.182 88.4619 126.082 88.3936 125.959C88.3252 125.836 88.2936 125.696 88.3026 125.556C88.3026 124.952 88.3026 123.784 88.3026 122.508V121.617C88.3026 121.601 88.3088 121.586 88.3199 121.575C88.3311 121.564 88.3461 121.558 88.3619 121.558C89.2244 121.457 90.0956 121.652 90.8328 122.112C91.1648 122.378 91.4278 122.72 91.5999 123.109C91.7719 123.499 91.8478 123.924 91.8212 124.348C91.8536 124.618 91.8265 124.891 91.7418 125.148C91.6571 125.406 91.5169 125.641 91.3312 125.839C91.1454 126.036 90.9186 126.19 90.6668 126.29C90.415 126.39 90.1444 126.433 89.8741 126.417V126.466ZM71.2726 116.768C71.2726 116.768 71.1837 116.768 70.9761 116.828C70.6069 116.887 70.2331 116.913 69.8593 116.907H64.7493C64.7493 116.907 64.2946 116.907 63.7609 116.828C63.4842 116.828 63.1876 116.659 63.0789 116.659C62.9702 116.659 62.99 116.719 62.9405 116.907C62.8417 117.332 62.6144 118.361 62.6243 118.451C62.6341 118.54 62.6243 118.589 62.7033 118.589C62.7824 118.589 62.8022 118.589 62.8417 118.47C62.903 118.301 62.9825 118.138 63.0789 117.985C63.2964 117.659 63.5138 117.501 64.5121 117.481H66.4888V123.042C66.4888 124.21 66.4888 125.338 66.4295 125.902C66.3702 126.466 66.3208 126.614 66.0243 126.664H65.6784C65.5598 126.664 65.5103 126.733 65.5103 126.773C65.5103 126.812 65.5696 126.882 65.7476 126.882C66.1528 126.882 67.072 126.882 67.1313 126.882C67.1906 126.882 68.1197 126.882 68.9104 126.882C69.0587 126.882 69.1081 126.882 69.1081 126.763C69.1081 126.644 69.0488 126.664 68.9203 126.664C68.7178 126.666 68.5157 126.646 68.3174 126.605C67.922 126.515 67.8924 126.298 67.8429 125.922C67.7836 125.338 67.7738 124.239 67.7738 123.032V117.471H69.2959C70.8674 117.471 71.075 117.649 71.1343 118.272C71.1343 118.431 71.1343 118.441 71.1343 118.49C71.1343 118.54 71.1343 118.678 71.243 118.678C71.3517 118.678 71.3517 118.678 71.3517 118.49C71.3517 118.302 71.3517 117.332 71.3517 116.897C71.3715 116.768 71.3319 116.768 71.2726 116.768ZM61.3888 124.982C61.3196 124.982 61.28 125.051 61.2504 125.199C61.1219 125.783 61.0132 126.09 60.5486 126.189C60.159 126.272 59.7605 126.305 59.3626 126.288C58.9775 126.32 58.59 126.269 58.2259 126.139C57.8998 126.001 57.8207 125.704 57.791 125.15C57.791 124.883 57.791 123.517 57.791 123.032V121.894C57.791 121.835 57.791 121.785 57.8998 121.785C58.0085 121.785 59.412 121.785 59.7678 121.845C60.3608 121.894 60.4498 122.112 60.5091 122.31C60.5259 122.435 60.5259 122.561 60.5091 122.686C60.5091 122.795 60.5091 122.894 60.6079 122.894C60.7068 122.894 60.6969 122.894 60.7167 122.716C60.7364 122.537 60.7167 122.201 60.776 121.726C60.8353 121.251 60.8847 120.984 60.8847 120.905C60.8847 120.826 60.8847 120.806 60.8254 120.806C60.7661 120.806 60.7167 120.806 60.6475 120.934C60.5783 121.063 60.2917 121.152 59.9358 121.172C59.58 121.192 58.0184 121.172 57.8306 121.172C57.6428 121.172 57.7416 121.112 57.7416 121.023V117.481C57.7416 117.382 57.7416 117.352 57.8207 117.352H59.5899C60.3707 117.352 60.5091 117.51 60.5783 117.827C60.6369 117.986 60.6735 118.153 60.687 118.322C60.687 118.431 60.687 118.5 60.7957 118.5C60.9045 118.5 60.9045 118.401 60.9045 118.263C60.9045 117.966 60.9045 117.718 60.9045 117.451C60.9045 117.184 61.0329 116.847 61.0329 116.749C61.0329 116.65 61.0329 116.64 60.9736 116.64C60.9143 116.64 60.8946 116.64 60.7957 116.64C60.5994 116.694 60.3965 116.721 60.1928 116.719H57.03C56.1602 116.719 55.7352 116.719 55.4288 116.719C55.2706 116.719 55.1916 116.719 55.1916 116.838C55.1916 116.956 55.2904 116.937 55.3991 116.937C55.5241 116.926 55.6498 116.926 55.7747 116.937C56.2195 117.026 56.3282 117.243 56.3579 117.679C56.3875 118.114 56.3579 118.48 56.3579 120.519V122.854C56.3579 124.042 56.3579 124.685 56.3579 125.209C56.3579 126.199 56.1404 126.377 55.8637 126.446C55.762 126.459 55.659 126.459 55.5573 126.446C55.4782 126.446 55.409 126.446 55.409 126.555C55.409 126.664 55.4881 126.664 55.6265 126.664C56.0021 126.664 56.2986 126.664 56.6149 126.664C57.198 126.664 57.9096 126.664 58.4533 126.664C58.9969 126.664 59.4416 126.664 60.43 126.664C60.944 126.664 61.0626 126.664 61.1219 126.318C61.1812 125.971 61.2899 125.071 61.2899 124.962C61.2899 124.853 61.4975 124.932 61.4085 124.932L61.3888 124.982ZM102.446 115.007C102.939 115.338 103.525 115.501 104.117 115.472C104.666 115.481 105.21 115.359 105.703 115.117C106.196 114.874 106.625 114.518 106.953 114.077C107.023 113.958 107.013 113.889 106.953 113.889C106.894 113.889 106.884 113.889 106.785 113.988C106.524 114.299 106.192 114.544 105.818 114.702C105.443 114.861 105.036 114.928 104.631 114.898C103.346 114.898 102.713 114.364 102.654 113.908C102.649 113.889 102.637 113.872 102.621 113.861C102.605 113.85 102.585 113.846 102.565 113.849C102.386 113.928 102.233 114.055 102.12 114.215C102.089 114.266 102.069 114.324 102.061 114.383C102.085 114.502 102.133 114.614 102.203 114.713C102.273 114.812 102.362 114.895 102.466 114.957L102.446 115.007ZM83.5583 126.664C83.3773 126.677 83.1957 126.677 83.0147 126.664C82.6095 126.664 82.5304 126.298 82.481 125.932C82.4217 125.368 82.4217 124.348 82.4217 123.072V120.736C82.4217 118.678 82.4217 118.322 82.4217 117.896C82.4217 117.471 82.5205 117.214 82.9356 117.154C83.0408 117.144 83.1467 117.144 83.2519 117.154C83.3705 117.154 83.4199 117.085 83.4199 117.045C83.4199 117.006 83.331 116.937 83.1728 116.937C82.7083 116.937 81.8286 116.937 81.7693 116.937C81.71 116.937 80.7809 116.937 80.1385 116.937C80.0001 116.937 79.921 116.937 79.921 117.045C79.921 117.154 80.0001 117.154 80.1088 117.154C80.2371 117.144 80.366 117.144 80.4943 117.154C81.0083 117.243 81.0676 117.461 81.0972 117.886C81.1269 118.312 81.0972 118.668 81.0972 120.717V121.004C81.0972 121.083 81.0972 121.083 81.0083 121.083H75.414C75.414 121.083 75.3151 121.083 75.3151 121.004V120.717C75.3151 118.668 75.3151 118.322 75.3151 117.896C75.3151 117.471 75.4436 117.194 75.8291 117.134C75.9309 117.123 76.0337 117.123 76.1355 117.134C76.2344 117.134 76.2937 117.134 76.2937 117.045C76.2937 116.956 76.2146 116.937 76.0663 116.937C75.6216 116.937 74.7221 116.937 74.6628 116.937C74.4553 116.937 73.6744 116.937 73.0419 116.937C72.8837 116.937 72.8046 116.937 72.8046 117.045C72.8046 117.154 72.8738 117.134 72.9826 117.134H73.3977C73.8523 117.134 73.9611 117.481 73.9907 117.886C74.0204 118.292 73.9907 118.708 73.9907 120.766V123.072C74.0255 124.036 73.9991 125.001 73.9116 125.961C73.9116 126.298 73.8029 126.595 73.5262 126.664C73.4014 126.678 73.2754 126.678 73.1506 126.664C73.0122 126.664 72.9826 126.733 72.9826 126.773C72.9826 126.812 73.0715 126.882 73.2297 126.882C73.6349 126.882 74.5837 126.882 74.6332 126.882C74.6826 126.882 75.6216 126.882 76.4221 126.882C76.5605 126.882 76.6198 126.882 76.6198 126.773C76.6198 126.664 76.5506 126.664 76.4419 126.664C76.2543 126.676 76.0661 126.676 75.8785 126.664C75.4733 126.664 75.3942 126.298 75.3448 125.961C75.2675 125.017 75.2411 124.069 75.2657 123.121V121.736C75.2657 121.657 75.2657 121.637 75.3448 121.637H81.0478C81.0604 121.637 81.0728 121.639 81.0843 121.645C81.0958 121.65 81.1061 121.657 81.1145 121.666C81.1229 121.676 81.1292 121.687 81.133 121.699C81.1369 121.711 81.1381 121.723 81.1367 121.736V123.121C81.1367 124.388 81.1367 125.368 81.0676 125.932C81.0676 126.288 80.9391 126.624 80.6722 126.674C80.5541 126.689 80.4345 126.689 80.3164 126.674C80.1879 126.674 80.1484 126.674 80.1484 126.773C80.1484 126.872 80.2274 126.892 80.3757 126.892C80.8007 126.892 81.7001 126.892 81.7693 126.892C81.8385 126.892 82.7577 126.892 83.5188 126.892C83.6769 126.892 83.756 126.892 83.756 126.783C83.756 126.674 83.6769 126.664 83.5583 126.664ZM126 126.149C125.949 126.157 125.897 126.146 125.854 126.118C125.811 126.091 125.778 126.05 125.762 126.001C124.616 123.25 122.451 117.768 122.165 117.095C122.026 116.788 121.967 116.679 121.888 116.679C121.809 116.679 121.7 116.788 121.512 117.253L118.211 125.981C118.122 126.12 118.102 126.149 117.994 126.149C117.584 126.16 117.175 126.14 116.768 126.09C116.709 126.09 116.669 126.09 116.689 126.219C116.709 126.347 116.748 126.882 116.768 127.743C116.768 127.94 116.768 127.99 116.877 127.99C116.986 127.99 116.986 127.881 116.995 127.772C116.995 127.149 117.282 126.921 117.984 126.882C118.34 126.882 118.725 126.882 119.743 126.882H124.398C124.972 126.882 125.762 126.882 126.168 126.882C126.292 126.873 126.416 126.891 126.532 126.934C126.649 126.977 126.755 127.044 126.843 127.131C126.932 127.218 127.001 127.323 127.047 127.438C127.092 127.554 127.113 127.678 127.107 127.802C127.107 127.921 127.107 128 127.235 128C127.364 128 127.344 127.94 127.344 127.802C127.358 127.262 127.408 126.723 127.492 126.189C127.492 126.08 127.492 126.07 127.413 126.08C126.943 126.111 126.471 126.117 126 126.1V126.149ZM124.29 126.149C123.761 126.2 123.229 126.216 122.698 126.199H120.583C120.095 126.214 119.606 126.198 119.12 126.149C119.12 126.149 119.041 126.149 119.041 126.08C119.107 125.828 119.197 125.583 119.308 125.348L121.591 118.856C121.591 118.856 121.591 118.856 121.671 118.856C122.659 121.35 123.647 124.091 124.369 126.011C124.379 126.09 124.349 126.12 124.29 126.13V126.149ZM153.941 116.838C153.309 116.838 152.508 116.838 152.182 116.838C152.093 116.838 151.194 116.838 150.561 116.838C150.423 116.838 150.344 116.838 150.344 116.956C150.344 117.075 150.413 117.035 150.443 117.035H150.927C151.362 117.134 151.48 117.382 151.52 117.788C151.559 118.193 151.52 118.49 151.52 120.637V122.973C151.543 123.927 151.516 124.881 151.441 125.833C151.391 126.199 151.312 126.515 151.036 126.565C150.903 126.598 150.767 126.618 150.63 126.624C150.551 126.624 150.522 126.624 150.522 126.703C150.522 126.783 150.601 126.822 150.739 126.822C151.174 126.822 152.093 126.822 152.113 126.822C152.133 126.822 153.101 126.822 153.872 126.822C154.02 126.822 154.09 126.822 154.09 126.703C154.09 126.585 154.09 126.624 153.991 126.624C153.782 126.616 153.574 126.596 153.368 126.565C152.953 126.565 152.874 126.199 152.825 125.833C152.765 125.269 152.765 124.141 152.765 122.943V117.56C152.765 117.451 152.765 117.342 152.854 117.313C153.026 117.254 153.207 117.227 153.388 117.233C153.743 117.202 154.101 117.252 154.435 117.379C154.769 117.506 155.07 117.706 155.315 117.966C155.547 118.22 155.726 118.518 155.841 118.843C155.957 119.167 156.006 119.512 155.987 119.856C155.995 120.153 155.94 120.448 155.828 120.723C155.716 120.998 155.549 121.246 155.337 121.454C155.124 121.661 154.871 121.822 154.594 121.926C154.316 122.031 154.02 122.078 153.724 122.062C153.427 122.062 153.338 122.062 153.338 122.191C153.338 122.32 153.418 122.28 153.477 122.28C153.575 122.289 153.675 122.289 153.773 122.28C154.192 122.318 154.614 122.27 155.014 122.14C155.414 122.009 155.783 121.799 156.099 121.521C156.415 121.244 156.672 120.905 156.853 120.525C157.034 120.145 157.137 119.732 157.154 119.311C157.165 118.988 157.11 118.666 156.993 118.365C156.876 118.064 156.698 117.79 156.472 117.56C155.747 116.982 154.823 116.715 153.902 116.818L153.941 116.838ZM166.524 121.558C165.614 121.156 164.618 120.989 163.628 121.073H163.301C163.252 121.073 163.232 121.073 163.232 121.014V120.667C163.232 118.609 163.232 118.253 163.232 117.827C163.232 117.402 163.381 117.144 163.746 117.065H164.082C164.132 117.065 164.191 117.065 164.191 116.986C164.191 116.907 164.102 116.867 163.964 116.867C163.529 116.867 162.619 116.867 162.57 116.867H160.959C160.434 116.878 159.909 116.825 159.397 116.709C159.289 116.709 159.259 116.62 159.15 116.62C159.041 116.62 159.022 116.729 158.992 116.887C158.962 117.045 158.696 118.183 158.686 118.302C158.676 118.421 158.686 118.46 158.745 118.46C158.804 118.46 158.854 118.46 158.903 118.322C158.966 118.173 159.042 118.031 159.13 117.896C159.348 117.57 159.723 117.431 160.583 117.431H161.947C161.947 117.847 161.947 118.599 161.947 120.657V122.993C161.982 123.96 161.959 124.928 161.878 125.892C161.878 126.268 161.76 126.545 161.493 126.595C161.374 126.607 161.255 126.607 161.137 126.595C161.028 126.595 160.959 126.595 160.959 126.703C160.959 126.812 161.038 126.812 161.176 126.812C161.621 126.812 162.501 126.812 162.55 126.812C162.936 126.812 163.993 126.892 164.527 126.892C164.941 126.932 165.359 126.889 165.756 126.765C166.153 126.641 166.521 126.438 166.839 126.168C167.156 125.898 167.416 125.568 167.603 125.196C167.79 124.824 167.9 124.418 167.927 124.002C167.953 123.495 167.83 122.992 167.573 122.554C167.317 122.116 166.938 121.763 166.484 121.538L166.524 121.558ZM164.843 126.407C164.436 126.433 164.029 126.358 163.657 126.189C163.533 126.123 163.431 126.022 163.363 125.899C163.294 125.777 163.263 125.637 163.272 125.496C163.272 124.893 163.272 123.784 163.272 122.528V121.637C163.272 121.637 163.272 121.578 163.341 121.578C164.2 121.483 165.066 121.678 165.802 122.132C166.132 122.393 166.395 122.729 166.567 123.114C166.739 123.498 166.816 123.918 166.79 124.338C166.682 125.734 165.891 126.387 164.804 126.387L164.843 126.407ZM133.165 121.202C133.557 120.925 133.876 120.557 134.095 120.129C134.314 119.702 134.425 119.228 134.421 118.747C134.421 118.075 133.956 116.768 131.624 116.768C131.011 116.768 130.497 116.768 130.131 116.768C130.131 116.768 129.143 116.768 128.51 116.768C128.372 116.768 128.273 116.768 128.273 116.877C128.273 116.986 128.332 116.986 128.481 116.986C128.602 116.98 128.724 116.98 128.846 116.986C129.321 117.075 129.429 117.293 129.459 117.718C129.489 118.144 129.459 118.53 129.459 120.568V122.904C129.482 123.858 129.456 124.812 129.38 125.763C129.331 126.13 129.242 126.456 128.975 126.506C128.883 126.52 128.79 126.52 128.698 126.506C128.49 126.506 128.481 126.585 128.481 126.634C128.481 126.684 128.56 126.723 128.698 126.723C129.212 126.723 129.617 126.723 130.102 126.723C130.161 126.723 130.536 126.723 130.971 126.723C131.406 126.723 131.683 126.723 131.96 126.723C134.332 126.723 135.498 125.269 135.498 123.824C135.42 123.194 135.15 122.602 134.726 122.13C134.302 121.658 133.744 121.327 133.126 121.182L133.165 121.202ZM130.754 117.471C130.754 117.392 130.803 117.362 130.942 117.332C131.135 117.282 131.335 117.256 131.535 117.253C132.859 117.253 133.334 118.451 133.334 119.529C133.351 119.98 133.208 120.422 132.928 120.776C132.642 121.103 132.404 121.152 131.604 121.152C131.348 121.18 131.089 121.18 130.833 121.152C130.783 121.152 130.754 121.152 130.754 120.994V117.471ZM132.414 126.377C132.022 126.381 131.633 126.311 131.268 126.169C130.803 125.971 130.813 125.763 130.764 125.081C130.764 124.952 130.764 123.24 130.764 122.26V121.647C130.764 121.578 130.764 121.558 130.843 121.558C131.172 121.53 131.502 121.53 131.831 121.558C132.208 121.576 132.574 121.696 132.889 121.904C133.315 122.213 133.659 122.622 133.892 123.094C134.124 123.567 134.238 124.089 134.223 124.616C134.234 124.858 134.193 125.1 134.103 125.325C134.012 125.55 133.875 125.753 133.7 125.921C133.525 126.089 133.316 126.217 133.088 126.297C132.859 126.378 132.616 126.408 132.375 126.387L132.414 126.377ZM142.97 116.62C142.271 116.593 141.574 116.707 140.919 116.954C140.265 117.202 139.666 117.577 139.159 118.06C138.652 118.542 138.246 119.121 137.965 119.762C137.684 120.404 137.534 121.095 137.524 121.795C137.504 122.499 137.63 123.199 137.895 123.851C138.159 124.503 138.557 125.093 139.062 125.582C139.567 126.072 140.168 126.451 140.827 126.695C141.487 126.939 142.19 127.043 142.891 127C143.614 127.03 144.336 126.912 145.011 126.652C145.687 126.392 146.302 125.996 146.818 125.489C147.335 124.981 147.743 124.374 148.016 123.703C148.289 123.032 148.422 122.312 148.406 121.587C148.367 118.46 146.015 116.63 142.931 116.63L142.97 116.62ZM143.287 126.515C140.667 126.515 138.967 124.536 138.967 121.439C138.967 118.342 140.717 117.144 142.921 117.144C145.125 117.144 146.983 118.896 146.983 122.023C146.904 125.951 144.305 126.476 143.247 126.476L143.287 126.515ZM38.3692 84.746C38.5372 84.746 38.7448 84.746 38.9425 84.8054C39.4663 84.9143 39.6937 85.1517 39.7332 85.8642C39.7727 86.5767 39.7332 86.9429 39.7332 89.8225V93.1375C39.7332 94.9187 39.7332 96.1854 39.664 96.9671C39.5948 97.7489 39.4564 98.1447 39.0314 98.2239H38.6163C38.4186 98.2239 38.3989 98.3228 38.3989 98.3723C38.3989 98.4218 38.5274 98.4812 38.7349 98.4812C39.2884 98.4812 40.3163 98.4812 40.4646 98.4812C40.6129 98.4812 42.0263 98.4812 42.8071 98.4812C43.0641 98.4812 43.1431 98.4812 43.1431 98.3723C43.1431 98.2635 43.0838 98.2437 42.8565 98.2239L42.0954 98.1546C41.5419 98.0557 41.4135 97.6499 41.3739 97.0166C41.3146 96.2349 41.2948 94.9286 41.2948 93.1375V85.6762C41.2948 85.3794 41.3937 85.3398 41.6111 85.32C41.8286 85.3002 42.3425 85.32 45.0705 85.32C47.7984 85.32 48.8362 85.32 49.113 85.32C49.1286 85.3212 49.1438 85.3255 49.1577 85.3327C49.1716 85.3398 49.184 85.3497 49.1941 85.3616C49.2042 85.3736 49.2118 85.3874 49.2166 85.4024C49.2213 85.4173 49.2231 85.433 49.2217 85.4486V93.0188C49.2217 94.8099 49.2217 96.3932 49.1525 97.1749C49.0833 97.9567 48.8165 98.1645 48.52 98.2437H48.1444C47.8874 98.2437 47.8676 98.3228 47.8676 98.3723C47.8676 98.4218 47.8676 98.501 48.1641 98.501C48.7374 98.501 49.8049 98.501 49.963 98.501C50.1211 98.501 51.4752 98.501 52.345 98.501C52.513 98.501 52.5921 98.501 52.5921 98.3723C52.5921 98.2437 52.5921 98.2635 52.345 98.2437C52.1035 98.2335 51.8626 98.2103 51.6235 98.1744C51.0799 98.0754 50.9119 97.7786 50.8624 97.076C50.813 96.3734 50.7834 94.889 50.7834 93.1177V89.8819C50.7834 86.9824 50.7834 86.4382 50.7834 85.8444C50.7834 85.0231 51.0305 84.9143 51.495 84.8549C51.6091 84.8287 51.7246 84.8089 51.8409 84.7955C52.0287 84.7955 52.088 84.7163 52.088 84.6471C52.088 84.5778 52.088 84.5382 51.8113 84.5382C51.3962 84.5382 49.9828 84.5877 49.8938 84.5877H40.5239C40.2373 84.5877 39.1797 84.5382 38.5471 84.5382C38.3396 84.5382 38.2308 84.5382 38.2308 84.6471C38.2308 84.7559 38.2012 84.7262 38.3692 84.746ZM18.3544 98.5999C18.8584 98.5999 19.748 98.5999 19.916 98.5999C20.084 98.5999 21.0131 98.5999 21.705 98.5999C21.8829 98.5999 21.9817 98.5999 21.9817 98.4416C21.9817 98.2833 21.9027 98.3426 21.794 98.3426C21.568 98.3447 21.3426 98.3215 21.1218 98.2734C21.044 98.2637 20.9689 98.2385 20.901 98.1991C20.8332 98.1597 20.7739 98.1071 20.7269 98.0442C20.6798 97.9814 20.6459 97.9097 20.6272 97.8335C20.6084 97.7572 20.6052 97.678 20.6178 97.6005C20.6178 97.2838 20.6178 97.0166 20.6178 96.7197L21.3788 87.9522C21.5864 88.4569 23.7213 93.0584 23.8893 93.3849C24.0574 93.7115 25.5894 96.7989 26.0737 97.7093C26.4196 98.3822 26.5184 98.5702 26.6469 98.5702C26.7754 98.5702 26.8743 98.402 27.2597 97.5807L31.8755 87.784L32.7651 97.5015C32.7651 97.8379 32.8244 98.1249 32.6959 98.1744C32.5674 98.2239 32.5674 98.2338 32.5674 98.303C32.5674 98.3723 32.6563 98.4515 33.0813 98.4911C33.7732 98.5504 35.8884 98.5999 36.3035 98.5999C36.5209 98.5999 36.5802 98.5999 36.5802 98.4515C36.5802 98.303 36.4715 98.3426 36.3727 98.3426C35.984 98.3472 35.5971 98.2905 35.2261 98.1744C34.4255 97.9171 34.2971 96.8682 34.2378 96.1953L33.0122 84.7262C33.0122 84.37 32.9133 84.2216 32.7848 84.2216C32.6563 84.2216 32.5871 84.3502 32.5081 84.5184L27.0423 96.2151L21.3492 84.4986C21.2503 84.3007 21.1812 84.2216 21.0724 84.2216C20.9637 84.2216 20.8846 84.3898 20.8649 84.5976L19.5207 96.7C19.4317 97.4619 19.3922 98.1348 18.7794 98.2536C18.5954 98.2729 18.4099 98.2729 18.2259 98.2536C18.127 98.2536 18.0381 98.2536 18.0381 98.3624C18.0381 98.4713 18.1666 98.5603 18.3544 98.5603V98.5999ZM70.7982 91.9204C70.4029 91.9204 70.2941 91.9204 70.2941 92.0886C70.2941 92.2568 70.4029 92.2172 70.5017 92.2172C70.63 92.2271 70.7589 92.2271 70.8872 92.2172C71.4682 92.2591 72.0516 92.1815 72.6015 91.9893C73.1514 91.797 73.6563 91.4941 74.0849 91.0993C74.5136 90.7044 74.857 90.2259 75.0941 89.6932C75.3311 89.1605 75.4568 88.5848 75.4634 88.0017C75.4786 87.5544 75.4042 87.1086 75.2446 86.6905C75.0851 86.2724 74.8436 85.8906 74.5343 85.5674C74.2378 85.2903 73.3977 84.5085 71.075 84.5085C70.225 84.5085 69.0982 84.558 68.7325 84.558C68.5842 84.558 67.4674 84.5085 66.6272 84.5085C66.4296 84.5085 66.3307 84.5085 66.3307 84.657C66.3307 84.8054 66.4098 84.7658 66.479 84.7658C66.6912 84.765 66.9031 84.7849 67.1115 84.8252C67.7243 84.9538 67.8726 85.2507 67.9121 85.884C67.9517 86.5173 67.9121 87.0022 67.9121 89.9017V93.187C67.9121 94.9682 67.9121 96.4427 67.8232 97.2244C67.7441 97.7687 67.6551 98.214 67.2796 98.214C67.0971 98.251 66.912 98.2742 66.7261 98.2833C66.6075 98.2833 66.5679 98.3426 66.5679 98.3921C66.5679 98.4416 66.6668 98.5405 66.8743 98.5405C67.4278 98.5405 68.604 98.5405 68.6534 98.5405C68.7028 98.5405 69.9186 98.5405 70.9465 98.5405C71.154 98.5405 71.243 98.5405 71.243 98.3921C71.243 98.2437 71.243 98.2833 71.0947 98.2833C70.9465 98.2833 70.5116 98.2833 70.2546 98.214C69.7011 98.1348 69.5825 97.7291 69.5331 97.2244C69.4342 96.4427 69.4342 94.9682 69.4342 93.187V85.508C69.4342 85.32 69.4342 85.1913 69.5825 85.1518C69.8414 85.071 70.112 85.0342 70.3831 85.0429C70.8502 85.0022 71.3205 85.0644 71.7611 85.2251C72.2016 85.3858 72.6016 85.6411 72.9331 85.9731C73.6244 86.7081 74.0006 87.685 73.9808 88.6944C73.9975 89.1173 73.9266 89.5391 73.7726 89.9333C73.6186 90.3274 73.3847 90.6854 73.0858 90.9847C72.7869 91.284 72.4293 91.5181 72.0356 91.6723C71.6419 91.8265 71.2206 91.8975 70.7982 91.8808V91.9204ZM57.1782 96.502C57.1782 97.8973 56.9015 98.1546 56.5061 98.2536C56.3646 98.2619 56.2227 98.2619 56.0811 98.2536C55.9724 98.2536 55.8736 98.3129 55.8736 98.3624C55.8736 98.4119 55.9724 98.5109 56.18 98.5109C56.6544 98.5109 57.109 98.5109 57.5538 98.5109C58.2753 98.5109 59.1352 98.5109 59.8765 98.5109C60.6178 98.5109 61.2207 98.5702 62.5946 98.5702C63.3161 98.5702 63.4644 98.5702 63.583 98.0853C63.7016 97.6005 63.8202 96.4328 63.8202 96.2843C63.8202 96.1359 63.8202 95.9974 63.7115 95.9974C63.6028 95.9974 63.583 96.0765 63.5435 96.2843C63.3952 97.0859 63.1876 97.4718 62.5551 97.6598C62.0052 97.7922 61.4399 97.8487 60.8748 97.8281C60.355 97.861 59.8334 97.8041 59.3329 97.6598C58.8684 97.4718 58.7597 97.0661 58.7201 96.2942C58.7201 95.9083 58.7201 93.7511 58.7201 93.1177V91.5245C58.7186 91.5073 58.7209 91.4899 58.7268 91.4736C58.7327 91.4573 58.7422 91.4425 58.7544 91.4302C58.7667 91.418 58.7814 91.4085 58.7977 91.4026C58.814 91.3967 58.8314 91.3944 58.8486 91.3959C59.1649 91.3959 61.0132 91.3959 61.5074 91.485C62.1795 91.5641 62.4068 91.8214 62.4958 92.0985C62.5508 92.2677 62.5776 92.445 62.5748 92.6229C62.5748 92.7714 62.5748 92.9198 62.7033 92.9198C62.8318 92.9198 62.812 92.8308 62.8318 92.6427C62.8516 92.4547 62.8318 91.95 62.9109 91.3761C62.99 90.8022 63.0591 90.4459 63.0591 90.3865C63.0591 90.3272 63.0591 90.2381 62.9603 90.2381C62.8615 90.2381 62.8318 90.3074 62.7429 90.4162C62.6539 90.5251 62.308 90.7032 61.8138 90.7329C61.3196 90.7626 59.0957 90.7329 58.8486 90.7329C58.7597 90.7329 58.7399 90.6735 58.7399 90.5449V85.3991C58.7399 85.2705 58.7399 85.2111 58.8486 85.2111C58.9573 85.2111 61.0824 85.2111 61.3987 85.2705C62.219 85.3398 62.6045 85.5278 62.7429 85.9533C62.8031 86.1522 62.8331 86.359 62.8318 86.5668C62.8318 86.7153 62.8318 86.8142 62.9801 86.8142C63.1283 86.8142 63.1086 86.6856 63.1283 86.4976C63.1283 86.0127 63.1876 85.6564 63.2074 85.3793C63.2074 84.8549 63.3557 84.6372 63.3557 84.4986C63.3557 84.3601 63.3557 84.3304 63.2766 84.3304C63.2052 84.34 63.1372 84.3672 63.0789 84.4096C62.7986 84.4853 62.5093 84.522 62.219 84.5184C61.794 84.5184 58.0876 84.5184 57.9591 84.5184C56.7829 84.469 56.2887 84.469 55.8538 84.469C55.6561 84.469 55.5573 84.469 55.5573 84.6174C55.5573 84.7658 55.666 84.7064 55.8044 84.7262C55.9834 84.7339 56.1617 84.7537 56.3381 84.7856C56.9509 84.9143 57.0992 85.2111 57.1387 85.8444C57.1782 86.4778 57.1387 86.9626 57.1387 89.8621V93.1474C57.2178 94.8198 57.198 95.7698 57.1782 96.502ZM97.8504 85.32C99.6394 85.32 100.084 85.7851 100.134 86.3095C100.134 86.3788 100.134 86.4382 100.134 86.5074C100.134 86.7746 100.193 86.8241 100.282 86.8241C100.371 86.8241 100.42 86.7548 100.42 86.5866C100.42 86.4184 100.47 85.0924 100.47 84.5382C100.47 84.4294 100.47 84.3106 100.381 84.3106C100.292 84.3106 100.134 84.37 99.8568 84.4096C99.4185 84.4752 98.9755 84.5049 98.5324 84.4986H91.6137C91.3863 84.4986 90.6846 84.4986 90.141 84.4096C89.8592 84.3676 89.5837 84.2912 89.3206 84.182C89.2514 84.182 89.1723 84.4294 89.1328 84.5382C89.0933 84.6471 88.7276 86.2897 88.7276 86.5173C88.7276 86.7449 88.7276 86.6856 88.8165 86.6856C88.9055 86.6856 88.9549 86.6856 89.0043 86.4976C89.0902 86.2929 89.1962 86.0974 89.3206 85.9137C89.6171 85.4684 90.0619 85.3398 91.2183 85.32H93.9759V93.2365C93.9759 95.0177 93.9759 96.4921 93.8771 97.2739C93.8079 97.8182 93.7091 98.2635 93.3433 98.2635C93.1576 98.3011 92.9693 98.3243 92.78 98.3327C92.6712 98.3327 92.6317 98.3921 92.6317 98.4416C92.6317 98.4911 92.7305 98.59 92.9282 98.59C93.4916 98.59 94.6579 98.59 94.7567 98.59C94.8556 98.59 96.0219 98.59 97.0399 98.59C97.2475 98.59 97.3364 98.59 97.3364 98.4416C97.3364 98.2932 97.3364 98.3327 97.1882 98.3327C97.0399 98.3327 96.6149 98.3327 96.3579 98.2635C95.7945 98.1843 95.6858 97.7786 95.6265 97.2739C95.5376 96.4921 95.5376 95.0177 95.5376 93.2365V85.32H97.8504ZM123.637 91.8808C123.242 91.8808 123.133 91.8808 123.133 92.049C123.133 92.2172 123.242 92.1776 123.341 92.1776C123.469 92.1875 123.598 92.1875 123.726 92.1776C124.307 92.2181 124.89 92.1395 125.439 91.9467C125.988 91.7539 126.493 91.4509 126.921 91.0563C127.349 90.6618 127.693 90.1838 127.93 89.6518C128.168 89.1198 128.295 88.5448 128.303 87.9621C128.318 87.5148 128.243 87.069 128.084 86.6509C127.924 86.2329 127.683 85.851 127.374 85.5278C127.077 85.2507 126.237 84.469 123.914 84.469C123.064 84.469 121.937 84.5184 121.572 84.5184C121.423 84.5184 120.307 84.469 119.466 84.469C119.259 84.469 119.17 84.469 119.17 84.6174C119.17 84.7658 119.249 84.7262 119.318 84.7262C119.53 84.7254 119.742 84.7453 119.951 84.7856C120.564 84.9143 120.712 85.2111 120.751 85.8444C120.791 86.4778 120.751 86.9626 120.751 89.8621V93.1474C120.751 94.9286 120.751 96.4031 120.653 97.1848C120.583 97.7291 120.494 98.1744 120.119 98.1744C119.933 98.2121 119.745 98.2352 119.555 98.2437C119.447 98.2437 119.407 98.303 119.407 98.3525C119.407 98.402 119.506 98.501 119.704 98.501C120.267 98.501 121.443 98.501 121.493 98.501C121.542 98.501 122.758 98.501 123.786 98.501C123.983 98.501 124.082 98.4515 124.082 98.3525C124.082 98.3525 124.082 98.2437 123.934 98.2437C123.786 98.2437 123.351 98.2437 123.094 98.1744C122.54 98.0952 122.422 97.6895 122.372 97.1848C122.273 96.4031 122.273 94.9286 122.273 93.1474V85.508C122.273 85.32 122.273 85.1913 122.422 85.1518C122.681 85.071 122.951 85.0342 123.222 85.0429C123.689 85.0029 124.159 85.0654 124.6 85.2261C125.04 85.3867 125.44 85.6417 125.772 85.9731C126.445 86.7157 126.8 87.6927 126.761 88.6944C126.777 89.1139 126.707 89.5323 126.556 89.9236C126.404 90.315 126.174 90.6711 125.879 90.9698C125.585 91.2685 125.232 91.5034 124.843 91.6601C124.454 91.8168 124.037 91.8919 123.618 91.8808H123.637ZM53.0369 126.664C52.8526 126.677 52.6677 126.677 52.4834 126.664C52.088 126.664 52.009 126.298 51.9595 125.932C51.9002 125.368 51.9002 124.348 51.9002 123.072V120.736C51.9002 118.678 51.9002 118.322 51.9002 117.896C51.9002 117.471 51.9991 117.214 52.4142 117.154C52.5194 117.144 52.6253 117.144 52.7305 117.154C52.8491 117.154 52.8985 117.085 52.8985 117.045C52.8985 117.006 52.8096 116.937 52.6514 116.937C52.1869 116.937 51.3072 116.937 51.2479 116.937C51.1886 116.937 50.2595 116.937 49.6171 116.937C49.4688 116.937 49.3996 116.937 49.3996 117.045C49.3996 117.154 49.4688 117.154 49.5874 117.154C49.7157 117.144 49.8446 117.144 49.9729 117.154C50.4869 117.243 50.5462 117.461 50.5758 117.886C50.6055 118.312 50.5758 118.668 50.5758 120.717V121.004C50.5758 121.083 50.5758 121.083 50.4869 121.083H44.853C44.8036 121.083 44.7542 121.083 44.7542 121.004V120.717C44.7542 118.668 44.7542 118.322 44.7542 117.896C44.7542 117.471 44.8827 117.194 45.2682 117.134C45.37 117.123 45.4727 117.123 45.5746 117.134C45.6734 117.134 45.7327 117.134 45.7327 117.045C45.7327 116.956 45.6536 116.937 45.4955 116.937C45.0606 116.937 44.1612 116.937 44.1019 116.937C44.0426 116.937 43.1135 116.937 42.4809 116.937C42.3228 116.937 42.2437 116.937 42.2437 117.045C42.2437 117.154 42.3129 117.134 42.4216 117.134H42.8367C43.2914 117.134 43.4001 117.481 43.4298 117.886C43.4594 118.292 43.4298 118.708 43.4298 120.766V123.072C43.5069 124.003 43.5267 124.938 43.4891 125.872C43.4891 126.209 43.3803 126.506 43.1036 126.575C42.9788 126.589 42.8528 126.589 42.728 126.575C42.5896 126.575 42.56 126.644 42.56 126.684C42.56 126.723 42.6489 126.793 42.8071 126.793C43.2123 126.793 44.1612 126.793 44.2106 126.793C44.26 126.793 45.199 126.793 45.9996 126.793C46.1379 126.793 46.1973 126.793 46.1973 126.684C46.1973 126.575 46.1182 126.575 46.0095 126.575C45.8251 126.587 45.6403 126.587 45.456 126.575C45.0507 126.575 44.9716 126.209 44.9222 125.872C44.8449 124.928 44.8185 123.98 44.8432 123.032V121.647C44.8432 121.568 44.8432 121.548 44.9222 121.548H50.5758C50.5884 121.548 50.6008 121.55 50.6123 121.555C50.6238 121.561 50.6341 121.568 50.6425 121.577C50.6509 121.587 50.6572 121.598 50.6611 121.61C50.6649 121.622 50.6662 121.634 50.6648 121.647V123.032C50.6648 124.299 50.6648 125.279 50.5956 125.843C50.5956 126.199 50.4671 126.535 50.2002 126.585C50.0821 126.6 49.9625 126.6 49.8444 126.585C49.7159 126.585 49.6764 126.585 49.6764 126.684C49.6764 126.783 49.7554 126.802 49.9037 126.802C50.3287 126.802 51.2281 126.802 51.2874 126.802C51.3467 126.802 52.2758 126.802 53.0468 126.802C53.2049 126.802 53.284 126.802 53.284 126.694C53.284 126.585 53.1555 126.664 53.0369 126.664ZM101.903 91.5047C101.903 94.8594 104.028 98.8275 109.128 98.8275C110.123 98.8446 111.112 98.6577 112.033 98.2784C112.953 97.8991 113.787 97.3353 114.482 96.6217C115.177 95.9081 115.719 95.0598 116.075 94.1288C116.431 93.1978 116.593 92.2038 116.551 91.2079C116.551 86.8637 113.417 84.2216 109.237 84.2216C108.274 84.2043 107.317 84.3805 106.424 84.7396C105.53 85.0988 104.717 85.6337 104.034 86.3126C103.35 86.9916 102.809 87.8009 102.443 88.6927C102.077 89.5845 101.893 90.5407 101.903 91.5047ZM114.752 91.7323C114.752 97.1453 111.292 98.115 109.612 98.115C106.271 98.115 103.682 95.3245 103.682 90.9803C103.682 86.9033 106.005 84.8549 109.118 84.8549C112.044 84.8549 114.762 87.2595 114.762 91.7323H114.752ZM85.7723 107.476L86.6717 106.576L1.97678 107.061L1.17618 106.259L0 107.476L1.21572 108.693L2.0262 107.882L86.6717 108.377L85.7723 107.476ZM28.3667 126.664C28.097 126.654 27.8289 126.617 27.5661 126.555C26.9632 126.417 26.8644 125.566 26.8248 125.17L25.8365 117.065C25.8365 116.818 25.7673 116.679 25.6783 116.679C25.5894 116.679 25.5202 116.768 25.4411 116.937L21.4876 125.011L17.3166 116.927C17.2078 116.719 17.1683 116.679 17.0892 116.679C17.0102 116.679 16.941 116.798 16.9113 117.065L15.8735 125.625C15.7944 126.248 15.6561 126.614 15.2805 126.614H14.984C14.8456 126.614 14.7863 126.684 14.7863 126.713C14.7863 126.743 14.8752 126.832 15.0136 126.832C15.3991 126.832 16.0613 126.832 16.2096 126.832C16.3578 126.832 17.0102 126.832 17.5043 126.832C17.6823 126.832 17.7712 126.832 17.7712 126.713C17.7712 126.595 17.7712 126.634 17.6131 126.614C17.4683 126.624 17.323 126.624 17.1782 126.614C17.0665 126.597 16.9651 126.539 16.8938 126.451C16.8225 126.364 16.7865 126.252 16.7927 126.139C16.7927 125.912 16.7927 125.773 16.7927 125.546L17.3759 119.549C17.4945 119.876 19.0265 122.904 19.1154 123.092C19.2044 123.28 20.4497 125.674 20.7561 126.13C21.0625 126.585 21.1317 126.802 21.2207 126.802C21.3096 126.802 21.4085 126.664 21.705 126.06L25.0062 119.351L25.6882 126.021C25.6882 126.248 25.6882 126.426 25.5992 126.466C25.5103 126.506 25.451 126.555 25.451 126.605C25.451 126.654 25.5795 126.713 25.9254 126.743C26.2713 126.773 28.0999 126.832 28.3865 126.832C28.6731 126.832 28.6138 126.832 28.6138 126.713C28.6138 126.595 28.426 126.664 28.3667 126.664ZM34.9593 116.679C34.2602 116.653 33.5629 116.767 32.9084 117.014C32.2539 117.261 31.6553 117.637 31.1479 118.119C30.6405 118.601 30.2345 119.18 29.9538 119.822C29.6731 120.463 29.5233 121.154 29.5133 121.855C29.4927 122.558 29.6188 123.258 29.8835 123.91C30.1482 124.562 30.5457 125.152 31.0507 125.642C31.5556 126.131 32.1569 126.51 32.8162 126.755C33.4756 126.999 34.1785 127.103 34.8802 127.06C35.6032 127.09 36.3247 126.971 37.0002 126.711C37.6756 126.451 38.2907 126.055 38.8075 125.548C39.3242 125.041 39.7317 124.433 40.0049 123.762C40.278 123.091 40.4109 122.371 40.3954 121.647C40.3954 118.46 38.043 116.63 34.9593 116.63V116.679ZM35.2756 126.575C32.6563 126.575 30.9563 124.596 30.9563 121.498C30.9563 118.401 32.7058 117.204 34.9099 117.204C37.114 117.204 38.9721 118.955 38.9721 122.082C38.9326 125.951 36.3134 126.476 35.2756 126.476V126.575ZM0.919201 84.746C1.06746 84.746 1.27502 84.746 1.51223 84.8054C2.11515 84.9143 2.31283 85.0429 2.3326 87.0913C2.3919 90.6636 2.3326 94.8594 2.3326 97.927C2.3326 98.6791 2.3919 98.8275 2.57969 98.8275C2.76749 98.8275 2.87621 98.7286 3.26168 98.303C4.04251 97.452 11.8211 87.8038 12.7897 86.5866C12.7897 89.773 12.7897 92.8802 12.7107 95.938C12.7107 97.3333 12.6217 98.115 12.0781 98.2338L11.5444 98.303C11.2973 98.303 11.2676 98.3624 11.2676 98.4515C11.2676 98.5405 11.2676 98.5603 11.5444 98.5603C12.2165 98.5603 12.8095 98.5603 13.2147 98.5603C13.62 98.5603 15.1915 98.5603 15.8241 98.5603C16.0218 98.5603 16.1008 98.5603 16.1008 98.4317C16.1008 98.303 16.0415 98.3228 15.8241 98.303C15.6066 98.2832 15.1915 98.303 15.0927 98.2338C14.4997 98.1348 14.3514 97.6301 14.3316 96.2546C14.2723 92.7714 14.2723 89.4563 14.2723 85.9731C14.2723 84.3502 14.1834 84.2018 13.9956 84.2018C13.8078 84.2018 13.4816 84.4986 12.7897 85.3398C10.9612 87.5762 6.16754 93.5333 3.89425 96.3437V86.6856C3.89425 85.1023 4.06227 84.8945 4.58612 84.7856C4.74565 84.7525 4.90764 84.7327 5.07043 84.7262C5.26811 84.7262 5.30764 84.6471 5.30764 84.5778C5.30764 84.5085 5.21869 84.469 4.99136 84.469C4.4774 84.469 3.72622 84.5184 3.13319 84.5184C2.83667 84.5184 1.66049 84.469 1.08723 84.469C0.879665 84.469 0.711639 84.4689 0.711639 84.5976C0.711639 84.7262 0.770943 84.7262 0.919201 84.746ZM181.705 106.259L180.915 107.051L94.8852 106.576L95.7847 107.476L94.8852 108.377L180.875 107.862L181.676 108.674L182.891 107.456L181.705 106.259ZM87.9665 107.476L90.7933 110.306L93.63 107.476L90.7933 104.646L87.9665 107.476Z" fill="url(#paint0_radial)"/>
<path d="M119.456 29.7463C114.514 23.611 105.738 23.1459 105.619 23.1459H104.749C103.365 23.5912 102.308 27.6979 101.448 31.5572C100.845 31.4582 100.163 31.3692 99.4711 31.3098C99.414 29.4975 99.2257 27.6918 98.9077 25.9068C98.6013 24.2443 96.5949 23.1162 94.4995 22.4829C95.6134 21.8155 96.5385 20.8744 97.1871 19.7487C97.8358 18.6231 98.1865 17.3501 98.206 16.0507C98.2904 14.5064 97.7929 12.9866 96.812 11.7919C95.831 10.5972 94.4379 9.81456 92.9082 9.59876V8.18369L92.0286 6.77851L92.5821 6.21446L93.8966 7.09517H96.2687V3.45358H93.8966L92.4931 4.33429L91.9396 3.78013L92.8193 2.37495V0H89.2018V2.37495L90.0913 3.78013L89.5279 4.33429L88.1244 3.45358H85.7622V7.09517H88.1244L89.5279 6.21446L90.0913 6.77851L89.2018 8.18369V9.60866C87.6731 9.82661 86.2814 10.6099 85.3008 11.8041C84.3202 12.9983 83.8219 14.5169 83.904 16.0606C83.9214 17.358 84.2702 18.6293 84.9172 19.7535C85.5643 20.8777 86.4881 21.8173 87.6006 22.4829C85.5151 23.1261 83.5087 24.2542 83.2023 25.9167C82.8843 27.7017 82.696 29.5074 82.6389 31.3197C81.8976 31.379 81.2255 31.4681 80.6621 31.5671C79.8022 27.7078 78.6853 23.6506 77.351 23.1558H76.4812C76.3626 23.1558 67.5857 23.6209 62.6438 29.7562C59.5007 33.6451 58.6902 38.8404 60.1629 45.1835C61.6356 51.5266 66.6962 59.8587 68.07 62.0852C67.7553 62.6787 67.5705 63.3325 67.5279 64.003C67.4853 64.6736 67.5859 65.3456 67.823 65.9742C68.0791 67.476 68.7979 68.86 69.8788 69.9324C72.6265 72.5152 78.626 74.6625 91.0599 74.6625C104.275 74.6625 110.235 71.7928 112.725 69.1012C113.515 68.2131 114.054 67.1303 114.287 65.9643C114.533 65.3255 114.638 64.6413 114.595 63.9582C114.552 63.2751 114.363 62.6092 114.04 62.006C115.424 59.7795 120.494 51.3286 121.947 45.1043C123.4 38.8799 122.56 33.6451 119.456 29.7463ZM61.4478 38.306C62.1397 37.0393 65.006 32.6259 72.3201 30.3895C72.4585 31.4879 72.6364 32.6952 72.8637 34.0113C66.0834 36.2675 62.9798 39.5627 61.5467 42.0762C61.3931 40.8256 61.36 39.563 61.4478 38.306ZM94.0646 69.8335C94.2838 69.3728 94.3985 68.8693 94.4007 68.359C94.3989 67.7681 94.2421 67.188 93.946 66.6768C95.7251 66.6075 97.3955 66.4887 98.888 66.3304C99.0315 67.3975 98.8416 68.4829 98.3444 69.4376C96.8618 69.6059 95.4089 69.7444 94.0449 69.8335H94.0646ZM75.7498 65.133L76.4318 65.2815C77.8155 65.5784 79.397 65.8554 81.1069 66.083C80.9689 67.107 81.0464 68.1485 81.3342 69.1408C79.6836 68.9132 78.0626 68.646 76.5801 68.359C75.9903 67.3898 75.7013 66.267 75.7498 65.133ZM103.425 37.2966C102.083 45.2966 99.2466 52.9713 95.0629 59.918C97.2933 52.3193 98.7309 44.5094 99.3525 36.6138C100.741 36.6839 102.118 36.913 103.454 37.2966H103.425ZM83.5976 69.4278C83.1148 68.4613 82.9389 67.3701 83.0935 66.3007C84.6058 66.4591 86.2267 66.5679 87.9564 66.6372C87.6569 67.1511 87.4968 67.7344 87.4919 68.3293C87.4952 68.8363 87.6099 69.3363 87.8279 69.7939C86.4936 69.7345 85.0604 69.596 83.5976 69.4278ZM105.925 44.7678C106.331 43.6101 106.696 42.472 107.022 41.3637C110.19 42.246 113.055 43.9813 115.305 46.3808C114.974 47.5318 114.575 48.662 114.109 49.7651C111.808 47.4829 109.005 45.7715 105.925 44.7678ZM115.809 44.0652C113.451 41.9012 110.622 40.3157 107.546 39.4341C107.872 38.1971 108.159 36.9899 108.386 35.842C111.1 36.6569 113.638 37.9725 115.868 39.7211C116.088 41.1622 116.071 42.6295 115.819 44.0652H115.809ZM109.039 32.1905C111.447 32.8818 113.503 34.4628 114.791 36.6138C112.896 35.494 110.875 34.6006 108.772 33.9519C108.881 33.3087 108.97 32.7446 109.049 32.2004L109.039 32.1905ZM95.0135 45.5199C95.6477 47.4007 95.6477 49.4379 95.0135 51.3187C93.6884 50.3812 92.6594 49.0831 92.0483 47.5782C91.335 45.6774 91.2381 43.5999 91.7716 41.6408C93.2522 42.5379 94.3927 43.9025 95.0135 45.5199ZM90.9315 69.8236C90.6417 69.8255 90.3579 69.7413 90.1161 69.5816C89.8742 69.4219 89.6852 69.1938 89.573 68.9264C89.4607 68.6589 89.4303 68.3642 89.4857 68.0794C89.541 67.7947 89.6795 67.5328 89.8837 67.327C90.0879 67.1212 90.3485 66.9807 90.6325 66.9234C90.9166 66.8661 91.2112 66.8945 91.4791 67.005C91.7469 67.1156 91.976 67.3033 92.1372 67.5443C92.2983 67.7854 92.3844 68.0689 92.3844 68.359C92.3844 68.7457 92.2316 69.1168 91.9594 69.3911C91.6872 69.6655 91.3177 69.821 90.9315 69.8236ZM96.0118 62.1644C99.9518 57.5362 103.074 52.2686 105.243 46.5886C106.306 46.9249 107.335 47.3588 108.317 47.885C105.855 53.9714 102.331 59.5706 97.9095 64.4206C96.7629 64.5294 95.5472 64.6086 94.2821 64.668C94.885 63.8466 95.478 63.0055 96.0217 62.1644H96.0118ZM110.007 48.9141C111.18 49.7241 112.266 50.6526 113.249 51.6849C111.228 55.7234 108.819 59.5547 106.054 63.1242C104.542 63.4706 102.772 63.807 100.766 64.1138C104.624 59.564 107.742 54.4347 110.007 48.9141ZM108.574 64.569C108.687 65.7111 108.431 66.8594 107.843 67.8445L106.242 68.2007C106.575 67.1942 106.683 66.1266 106.558 65.0737C107.289 64.9088 107.961 64.7405 108.574 64.569ZM91.0797 50.1906C91.722 51.5034 91.933 52.9859 91.6826 54.426C91.3101 56.0813 90.4161 57.573 89.1326 58.6811C88.6165 57.402 88.4559 56.0068 88.668 54.6437C88.9988 52.9476 89.8405 51.3936 91.0797 50.1906ZM87.4326 64.193L87.7785 64.668C86.5035 64.6086 85.268 64.5294 84.1116 64.4206C79.5557 59.6309 76.0064 53.9743 73.6742 47.786C74.5629 47.342 75.4849 46.9681 76.4318 46.6678C78.9014 53.1822 82.6409 59.1396 87.4326 64.193ZM71.9643 48.7558C74.1106 54.3575 77.2217 59.5389 81.1563 64.0643C79.7726 63.8763 78.4975 63.6487 77.351 63.4211C74.03 59.6212 70.63 52.7041 69.6218 50.5568C70.3496 49.8903 71.1333 49.2877 71.9643 48.7558ZM100.894 66.0929C102.239 65.9148 103.474 65.707 104.611 65.4794C104.686 66.5817 104.438 67.682 103.899 68.646C102.842 68.8241 101.744 68.9923 100.628 69.1507C100.926 68.1607 101.017 67.1197 100.894 66.0929ZM94.1437 29.3603C96.3379 32.0322 96.5653 35.8123 96.5257 37.643C94.169 36.9681 92.0753 35.5867 90.5262 33.6847C88.7107 31.2968 87.7187 28.3833 87.6994 25.3823C90.2542 25.8925 92.541 27.3042 94.1437 29.3603ZM89.4785 36.0894C90.1021 37.7039 90.1648 39.4816 89.6564 41.1361C88.997 43.0092 87.7395 44.6124 86.0785 45.698C85.6263 44.137 85.6263 42.4795 86.0785 40.9184C86.6843 38.9947 87.8725 37.3072 89.4785 36.0894ZM89.4785 45.4012C89.5711 46.3869 89.8076 47.3538 90.1803 48.2709C88.8853 49.4405 87.8716 50.8885 87.2151 52.5062C86.8889 51.0714 86.5628 49.5375 86.2267 48.0037C87.4272 47.3017 88.5165 46.4246 89.4588 45.4012H89.4785ZM86.9779 59.918C82.7895 52.9674 79.9555 45.2846 78.626 37.2768C79.958 36.8852 81.3315 36.6527 82.718 36.5842C83.3279 44.4887 84.7555 52.3086 86.9779 59.918ZM62.3473 45.7277C62.3473 45.4506 62.881 39.5133 73.2887 35.9706C73.5259 37.1086 73.8126 38.3159 74.1387 39.5528C67.3683 41.7596 64.3834 45.7079 63.138 48.1423C62.8316 47.3209 62.5548 46.5095 62.3275 45.7277H62.3473ZM64.2549 50.6755C64.2549 50.6063 65.777 44.4215 74.6725 41.4726C74.9888 42.571 75.3545 43.6991 75.7597 44.847C71.4292 46.1951 67.7056 49.0165 65.2334 52.8229C64.8874 52.1104 64.5514 51.388 64.245 50.6656L64.2549 50.6755ZM68.2084 52.0411C69.9656 55.7599 72.025 59.3277 74.3661 62.7086C72.8531 62.3306 71.3671 61.8512 69.9183 61.2738C69.4241 60.492 67.8823 57.9587 66.2613 54.8614C66.7976 53.8535 67.4476 52.9106 68.1985 52.051L68.2084 52.0411ZM69.6416 63.332C71.0024 63.8499 72.3917 64.2894 73.8027 64.6482C73.6749 65.7214 73.7863 66.8096 74.1289 67.8346C71.9544 67.32 70.4026 66.7658 70.0765 66.2809V66.2018C69.8091 65.7798 69.6324 65.3068 69.5575 64.8127C69.4827 64.3187 69.5113 63.8144 69.6416 63.332ZM85.9203 16.0606C85.8455 15.0436 86.1449 14.0343 86.7621 13.2231C87.3794 12.4119 88.2717 11.8549 89.271 11.6571C93.2937 11.6571 93.6792 19.1975 90.2593 21.5527L90.0814 21.4834C88.5099 20.8402 85.9203 19.2173 85.9203 16.0606ZM85.1889 26.2828C85.2735 26.0119 85.4478 25.778 85.6831 25.6198C85.7434 28.7311 86.7086 31.7574 88.4605 34.3279C86.9775 35.4242 85.7527 36.8328 84.8726 38.4544C84.4404 34.4011 84.5467 30.3082 85.1889 26.2828ZM64.0671 31.102C66.1461 28.6674 68.8968 26.9014 71.9742 26.0255C71.9742 26.6489 72.0631 27.4604 72.1521 28.44C68.485 29.422 65.1278 31.3222 62.3967 33.9618C62.8165 32.9347 63.3788 31.9719 64.0671 31.102Z" fill="url(#paint1_linear)"/>
<defs>
<radialGradient id="paint0_radial" cx="0" cy="0" r="1" gradientUnits="userSpaceOnUse" gradientTransform="translate(141.5 90.1071) rotate(17.9891) scale(77.8034 77.8783)">
<stop stop-color="#E2C15B"/>
<stop offset="0.0001" stop-color="#E9D28F"/>
<stop offset="0.760417" stop-color="#9E8650"/>
<stop offset="1" stop-color="#847553"/>
</radialGradient>
<linearGradient id="paint1_linear" x1="65" y1="75.0892" x2="192.037" y2="27.6318" gradientUnits="userSpaceOnUse">
<stop stop-color="#897446"/>
<stop offset="0.078125" stop-color="#99824E"/>
<stop offset="0.210892" stop-color="#9E8650"/>
<stop offset="0.409886" stop-color="#E1C987"/>
<stop offset="0.634689" stop-color="#9E8650"/>
<stop offset="0.875" stop-color="#9B844E"/>
<stop offset="1" stop-color="#8C7644"/>
</linearGradient>
</defs>
</svg>
