<svg viewBox="0 0 34 40" fill="none" xmlns="http://www.w3.org/2000/svg">
<path d="M31.6651 15.647C29.0726 12.4198 24.4683 12.1751 24.4061 12.1751H23.9498C23.2239 12.4094 22.6691 14.5696 22.2181 16.5996C21.9018 16.5476 21.544 16.5007 21.1811 16.4695C21.1511 15.5162 21.0523 14.5663 20.8855 13.6274C20.7248 12.7529 19.6722 12.1595 18.573 11.8264C19.1573 11.4753 19.6426 10.9803 19.9829 10.3882C20.3232 9.79605 20.5071 9.12647 20.5174 8.44295C20.5617 7.63063 20.3007 6.8312 19.7861 6.20276C19.2715 5.57431 18.5407 5.16263 17.7382 5.04911V4.30476L17.2768 3.56561L17.5671 3.26891L18.2567 3.73218H19.5011V1.81664H18.2567L17.5205 2.27991L17.2301 1.98841L17.6916 1.24927V0H15.7939V1.24927L16.2605 1.98841L15.965 2.27991L15.2287 1.81664H13.9895V3.73218H15.2287L15.965 3.26891L16.2605 3.56561L15.7939 4.30476V5.05432C14.9919 5.16897 14.2618 5.58096 13.7474 6.20914C13.233 6.83731 12.9716 7.63611 13.0147 8.44816C13.0238 9.13061 13.2068 9.79935 13.5462 10.3907C13.8857 10.982 14.3703 11.4763 14.9539 11.8264C13.8599 12.1647 12.8073 12.7581 12.6466 13.6326C12.4798 14.5716 12.381 15.5214 12.351 16.4747C11.9622 16.5059 11.6096 16.5528 11.314 16.6048C10.8629 14.5748 10.277 12.4406 9.57706 12.1803H9.12078C9.05856 12.1803 4.4543 12.425 1.86181 15.6523C0.212981 17.6979 -0.212188 20.4307 0.560374 23.7673C1.33294 27.1039 3.98765 31.4867 4.70836 32.6579C4.54327 32.9701 4.44631 33.314 4.42396 33.6667C4.40161 34.0194 4.45437 34.3729 4.57874 34.7036C4.71309 35.4935 5.09018 36.2215 5.65721 36.7857C7.09864 38.1442 10.2459 39.2738 16.7686 39.2738C23.701 39.2738 26.8275 37.7643 28.1341 36.3484C28.5484 35.8813 28.8312 35.3117 28.9533 34.6983C29.0821 34.3623 29.1372 34.0024 29.1148 33.6431C29.0925 33.2838 28.9932 32.9335 28.8237 32.6162C29.5496 31.4451 32.2095 26.9997 32.9717 23.7256C33.7339 20.4515 33.2932 17.6979 31.6651 15.647ZM1.23442 20.1496C1.59737 19.4833 3.10102 17.1618 6.9379 15.9854C7.01049 16.5632 7.10383 17.1982 7.22308 17.8905C3.66618 19.0773 2.0381 20.8107 1.28627 22.1328C1.20573 21.4749 1.18837 20.8108 1.23442 20.1496ZM18.3449 36.7336C18.4598 36.4913 18.52 36.2264 18.5212 35.958C18.5202 35.6472 18.438 35.342 18.2827 35.0731C19.216 35.0367 20.0922 34.9742 20.8751 34.8909C20.9504 35.4523 20.8508 36.0232 20.59 36.5254C19.8122 36.6139 19.05 36.6868 18.3345 36.7336H18.3449ZM8.73709 34.2611L9.09486 34.3392C9.82076 34.4953 10.6504 34.6411 11.5474 34.7608C11.475 35.2994 11.5156 35.8473 11.6666 36.3692C10.8007 36.2495 9.95038 36.109 9.17264 35.958C8.86325 35.4482 8.71166 34.8576 8.73709 34.2611ZM23.2551 19.6187C22.5515 23.8268 21.0633 27.8638 18.8686 31.5179C20.0386 27.5208 20.7927 23.4127 21.1188 19.2595C21.8474 19.2964 22.5694 19.4169 23.2706 19.6187H23.2551ZM12.854 36.5202C12.6007 36.0118 12.5084 35.4379 12.5895 34.8753C13.3828 34.9586 14.2332 35.0159 15.1405 35.0523C14.9834 35.3226 14.8994 35.6295 14.8969 35.9424C14.8986 36.2091 14.9588 36.4721 15.0731 36.7128C14.3732 36.6816 13.6214 36.6087 12.854 36.5202ZM24.5669 23.5487C24.7794 22.9396 24.9713 22.341 25.1424 21.758C26.8039 22.2221 28.3068 23.1349 29.4874 24.3971C29.3139 25.0026 29.1044 25.597 28.86 26.1773C27.6529 24.9768 26.1826 24.0766 24.5669 23.5487ZM29.7518 23.1791C28.5146 22.0407 27.0306 21.2068 25.4172 20.743C25.5883 20.0924 25.7387 19.4573 25.8579 18.8535C27.2815 19.2822 28.6127 19.9742 29.7829 20.894C29.8979 21.652 29.8892 22.4238 29.757 23.1791H29.7518ZM26.2001 16.9328C27.4634 17.2964 28.542 18.128 29.2178 19.2595C28.2234 18.6704 27.1636 18.2005 26.0601 17.8593C26.1172 17.5209 26.1638 17.2242 26.2053 16.938L26.2001 16.9328ZM18.8426 23.9443C19.1753 24.9336 19.1753 26.0052 18.8426 26.9945C18.1475 26.5014 17.6077 25.8186 17.2871 25.027C16.9129 24.0271 16.8621 22.9343 17.142 21.9038C17.9187 22.3757 18.517 23.0935 18.8426 23.9443ZM16.7012 36.7284C16.5492 36.7294 16.4004 36.6851 16.2735 36.6011C16.1466 36.5171 16.0475 36.3971 15.9886 36.2565C15.9297 36.1158 15.9138 35.9607 15.9428 35.8109C15.9718 35.6612 16.0445 35.5234 16.1516 35.4151C16.2587 35.3069 16.3954 35.233 16.5444 35.2028C16.6934 35.1727 16.848 35.1876 16.9885 35.2458C17.129 35.304 17.2492 35.4027 17.3337 35.5295C17.4183 35.6563 17.4634 35.8054 17.4634 35.958C17.4634 36.1614 17.3833 36.3566 17.2405 36.5009C17.0977 36.6453 16.9039 36.727 16.7012 36.7284ZM19.3663 32.6995C21.4332 30.265 23.071 27.4942 24.2091 24.5064C24.7664 24.6833 25.3062 24.9116 25.8216 25.1883C24.5302 28.3899 22.6814 31.3352 20.3618 33.8863C19.7604 33.9436 19.1226 33.9852 18.4589 34.0165C18.7752 33.5844 19.0863 33.142 19.3715 32.6995H19.3663ZM26.7083 25.7297C27.3234 26.1558 27.8932 26.6441 28.4089 27.1871C27.3488 29.3115 26.0846 31.3268 24.6343 33.2044C23.841 33.3866 22.9128 33.5636 21.8603 33.725C23.8841 31.3317 25.5201 28.6336 26.7083 25.7297ZM25.9564 33.9644C26.0158 34.5652 25.8813 35.1692 25.5727 35.6873L24.7328 35.8747C24.9075 35.3453 24.9641 34.7837 24.8987 34.2299C25.2824 34.1431 25.635 34.0546 25.9564 33.9644ZM16.779 26.4011C17.1159 27.0917 17.2267 27.8715 17.0953 28.629C16.8998 29.4997 16.4309 30.2844 15.7576 30.8673C15.4868 30.1944 15.4026 29.4605 15.5139 28.7435C15.6874 27.8513 16.1289 27.0339 16.779 26.4011ZM14.8657 33.7666L15.0472 34.0165C14.3784 33.9852 13.7302 33.9436 13.1236 33.8863C10.7336 31.3669 8.87171 28.3914 7.64825 25.1363C8.11447 24.9027 8.59815 24.706 9.09486 24.5481C10.3904 27.9748 12.3521 31.1084 14.8657 33.7666ZM6.75125 25.6464C7.87716 28.593 9.50924 31.3185 11.5733 33.6989C10.8474 33.6 10.1785 33.4803 9.57706 33.3606C7.83491 31.3618 6.05127 27.7233 5.52241 26.5937C5.90419 26.2431 6.31531 25.9262 6.75125 25.6464ZM21.9277 34.766C22.6329 34.6723 23.281 34.563 23.8772 34.4433C23.9165 35.0231 23.7868 35.6019 23.5039 36.109C22.9491 36.2027 22.3736 36.2912 21.7877 36.3744C21.9443 35.8537 21.992 35.3061 21.9277 34.766ZM18.3864 15.444C19.5374 16.8495 19.6567 18.8379 19.6359 19.8009C18.3996 19.4458 17.3013 18.7192 16.4886 17.7187C15.5362 16.4627 15.0158 14.9301 15.0057 13.3515C16.3459 13.6199 17.5456 14.3625 18.3864 15.444ZM15.939 18.9836C16.2662 19.8329 16.299 20.768 16.0324 21.6383C15.6864 22.6236 15.0268 23.4669 14.1554 24.0379C13.9182 23.2168 13.9182 22.3449 14.1554 21.5238C14.4732 20.5119 15.0965 19.6242 15.939 18.9836ZM15.939 23.8818C15.9876 24.4003 16.1117 24.9089 16.3072 25.3913C15.6278 26.0066 15.096 26.7682 14.7517 27.6192C14.5806 26.8644 14.4095 26.0576 14.2332 25.2508C14.8629 24.8815 15.4344 24.4201 15.9287 23.8818H15.939ZM14.6272 31.5179C12.4301 27.8617 10.9434 23.8205 10.2459 19.6083C10.9446 19.4023 11.6652 19.28 12.3925 19.2439C12.7125 23.4018 13.4614 27.5152 14.6272 31.5179ZM1.70626 24.0536C1.70626 23.9078 1.98625 20.7847 7.44603 18.9212C7.57047 19.5198 7.72084 20.1548 7.89194 20.8055C4.34023 21.9662 2.77436 24.0432 2.12106 25.3237C1.96032 24.8916 1.81514 24.4648 1.69589 24.0536H1.70626ZM2.70696 26.6562C2.70696 26.6198 3.50545 23.3665 8.17193 21.8153C8.33785 22.3931 8.5297 22.9865 8.74228 23.5903C6.47053 24.2994 4.51719 25.7835 3.22027 27.7857C3.0388 27.411 2.86251 27.031 2.70177 26.651L2.70696 26.6562ZM4.78095 27.3745C5.70273 29.3307 6.78311 31.2074 8.0112 32.9858C7.21749 32.787 6.43799 32.5348 5.67795 32.231C5.4187 31.8198 4.60985 30.4873 3.75951 28.858C4.04084 28.3279 4.38182 27.8319 4.77577 27.3797L4.78095 27.3745ZM5.53277 33.3137C6.24664 33.5862 6.97546 33.8173 7.71565 34.006C7.64861 34.5706 7.70705 35.143 7.88676 35.6821C6.74606 35.4115 5.93202 35.12 5.76091 34.8649V34.8233C5.62067 34.6013 5.52796 34.3525 5.48868 34.0926C5.44941 33.8327 5.46442 33.5675 5.53277 33.3137ZM14.0724 8.44816C14.0332 7.91319 14.1902 7.38229 14.514 6.95558C14.8378 6.52888 15.306 6.23586 15.8302 6.13181C17.9404 6.13181 18.1427 10.0982 16.3487 11.3371L16.2553 11.3006C15.4309 10.9623 14.0724 10.1086 14.0724 8.44816ZM13.6888 13.8252C13.7331 13.6827 13.8246 13.5597 13.948 13.4764C13.9796 15.1131 14.486 16.7049 15.405 18.0571C14.627 18.6337 13.9845 19.3747 13.5228 20.2277C13.2961 18.0955 13.3519 15.9426 13.6888 13.8252ZM2.60844 16.3602C3.6991 15.0795 5.14206 14.1506 6.75643 13.6899C6.75643 14.0178 6.8031 14.4446 6.84976 14.96C4.92603 15.4765 3.1649 16.476 1.73218 17.8645C1.95238 17.3242 2.24738 16.8178 2.60844 16.3602Z" fill="url(#paint0_linear_2321_7275)"/>
<defs>
<linearGradient id="paint0_linear_2321_7275" x1="3.09785" y1="39.4982" x2="69.7843" y2="14.6536" gradientUnits="userSpaceOnUse">
<stop stop-color="#897446"/>
<stop offset="0.078125" stop-color="#99824E"/>
<stop offset="0.210892" stop-color="#9E8650"/>
<stop offset="0.409886" stop-color="#E1C987"/>
<stop offset="0.634689" stop-color="#9E8650"/>
<stop offset="0.875" stop-color="#9B844E"/>
<stop offset="1" stop-color="#8C7644"/>
</linearGradient>
</defs>
</svg>
