<svg width="76" height="24" viewBox="0 0 76 24" fill="none" xmlns="http://www.w3.org/2000/svg">
<path d="M38 0L40.6942 8.2918H49.4127L42.3593 13.4164L45.0534 21.7082L38 16.5836L30.9466 21.7082L33.6407 13.4164L26.5873 8.2918H35.3058L38 0Z" fill="url(#paint0_linear)"/>
<path d="M9 3L11.0206 9.21885H17.5595L12.2694 13.0623L14.2901 19.2812L9 15.4377L3.70993 19.2812L5.73056 13.0623L0.440492 9.21885H6.97937L9 3Z" fill="url(#paint1_linear)"/>
<path d="M67 3L69.0206 9.21885H75.5595L70.2694 13.0623L72.2901 19.2812L67 15.4377L61.7099 19.2812L63.7306 13.0623L58.4405 9.21885H64.9794L67 3Z" fill="url(#paint2_linear)"/>
<defs>
<linearGradient id="paint0_linear" x1="28.1072" y1="24.1371" x2="74.1264" y2="3.82326" gradientUnits="userSpaceOnUse">
<stop stop-color="#897446"/>
<stop offset="0.078125" stop-color="#99824E"/>
<stop offset="0.210892" stop-color="#9E8650"/>
<stop offset="0.409886" stop-color="#E1C987"/>
<stop offset="0.634689" stop-color="#9E8650"/>
<stop offset="0.875" stop-color="#9B844E"/>
<stop offset="1" stop-color="#8C7644"/>
</linearGradient>
<linearGradient id="paint1_linear" x1="1.58043" y1="21.1029" x2="36.0948" y2="5.86744" gradientUnits="userSpaceOnUse">
<stop stop-color="#897446"/>
<stop offset="0.078125" stop-color="#99824E"/>
<stop offset="0.210892" stop-color="#9E8650"/>
<stop offset="0.409886" stop-color="#E1C987"/>
<stop offset="0.634689" stop-color="#9E8650"/>
<stop offset="0.875" stop-color="#9B844E"/>
<stop offset="1" stop-color="#8C7644"/>
</linearGradient>
<linearGradient id="paint2_linear" x1="59.5804" y1="21.1029" x2="94.0948" y2="5.86744" gradientUnits="userSpaceOnUse">
<stop stop-color="#897446"/>
<stop offset="0.078125" stop-color="#99824E"/>
<stop offset="0.210892" stop-color="#9E8650"/>
<stop offset="0.409886" stop-color="#E1C987"/>
<stop offset="0.634689" stop-color="#9E8650"/>
<stop offset="0.875" stop-color="#9B844E"/>
<stop offset="1" stop-color="#8C7644"/>
</linearGradient>
</defs>
</svg>
