<svg width="40" height="40" viewBox="0 0 40 40" fill="none" xmlns="http://www.w3.org/2000/svg">
<rect x="0.5" y="0.5" width="39" height="39" rx="3.5" stroke="#E0E0E0"/>
<g clip-path="url(#clip0)">
<path d="M24.9782 8.88892H15.0211C11.6397 8.88892 8.88867 11.64 8.88867 15.0214V24.9786C8.88867 28.3601 11.6397 31.1111 15.0211 31.1111H24.9782C28.3599 31.1111 31.1109 28.36 31.1109 24.9786V15.0214C31.111 11.64 28.3599 8.88892 24.9782 8.88892ZM29.1393 24.9786C29.1393 27.2729 27.2727 29.1395 24.9783 29.1395H15.0211C12.7268 29.1396 10.8603 27.2729 10.8603 24.9786V15.0214C10.8603 12.7272 12.7268 10.8606 15.0211 10.8606H24.9782C27.2726 10.8606 29.1392 12.7272 29.1392 15.0214V24.9786H29.1393Z" fill="#4F4F4F"/>
<path d="M19.9966 14.2756C16.8392 14.2756 14.2705 16.8443 14.2705 20.0018C14.2705 23.159 16.8392 25.7275 19.9966 25.7275C23.154 25.7275 25.7227 23.159 25.7227 20.0018C25.7227 16.8443 23.154 14.2756 19.9966 14.2756ZM19.9966 23.7558C17.9265 23.7558 16.2422 22.0718 16.2422 20.0017C16.2422 17.9314 17.9264 16.2472 19.9966 16.2472C22.0669 16.2472 23.751 17.9314 23.751 20.0017C23.751 22.0718 22.0667 23.7558 19.9966 23.7558Z" fill="#4F4F4F"/>
<path d="M25.9644 12.6023C25.5846 12.6023 25.2114 12.7561 24.9431 13.0256C24.6736 13.2937 24.5186 13.667 24.5186 14.0482C24.5186 14.4282 24.6737 14.8014 24.9431 15.0708C25.2112 15.339 25.5846 15.4941 25.9644 15.4941C26.3457 15.4941 26.7176 15.339 26.9871 15.0708C27.2566 14.8014 27.4103 14.4281 27.4103 14.0482C27.4103 13.667 27.2566 13.2937 26.9871 13.0256C26.7189 12.7561 26.3457 12.6023 25.9644 12.6023Z" fill="#4F4F4F"/>
</g>
<defs>
<clipPath id="clip0">
<rect width="22.2222" height="22.2222" fill="white" transform="translate(8.88867 8.88892)"/>
</clipPath>
</defs>
</svg>
