<svg viewBox="0 0 36 36" fill="none" xmlns="http://www.w3.org/2000/svg">
	<rect width="36" height="36" rx="18" fill="#2787F5" />
	<g clip-path="url(#clip0)">
		<path d="M27.6193 22.7709C27.5955 22.7203 27.5732 22.6784 27.5526 22.6449C27.2103 22.04 26.5564 21.2974 25.591 20.4171L25.5707 20.3969L25.5604 20.3871L25.5501 20.3769H25.5397C25.1017 19.967 24.8242 19.6914 24.7081 19.5503C24.4954 19.2815 24.4478 19.0094 24.5641 18.7337C24.6461 18.5254 24.9544 18.0855 25.4882 17.4134C25.7691 17.0572 25.9915 16.7718 26.1557 16.5567C27.3402 15.0111 27.8537 14.0234 27.6962 13.5933L27.635 13.4928C27.5939 13.4322 27.4879 13.3769 27.3169 13.3264C27.1455 13.276 26.9265 13.2677 26.6595 13.3013L23.7018 13.3213C23.654 13.3047 23.5856 13.3062 23.4964 13.3264C23.4074 13.3466 23.3629 13.3567 23.3629 13.3567L23.3114 13.382L23.2706 13.4123C23.2363 13.4324 23.1987 13.4676 23.1576 13.518C23.1166 13.5683 23.0824 13.6272 23.0551 13.6944C22.7331 14.5075 22.367 15.2635 21.9562 15.9623C21.7028 16.379 21.4702 16.7401 21.2577 17.0459C21.0455 17.3516 20.8675 17.5768 20.7238 17.7211C20.5799 17.8656 20.4502 17.9814 20.3335 18.0688C20.217 18.1563 20.1282 18.1933 20.0666 18.1798C20.005 18.1662 19.9469 18.1528 19.8919 18.1394C19.7961 18.0789 19.7191 17.9966 19.6609 17.8925C19.6026 17.7883 19.5634 17.6572 19.5428 17.4993C19.5223 17.3413 19.5103 17.2054 19.5069 17.0911C19.5036 16.9769 19.5051 16.8155 19.5121 16.6072C19.5192 16.3988 19.5223 16.2578 19.5223 16.1839C19.5223 15.9285 19.5275 15.6513 19.5376 15.3523C19.548 15.0532 19.5564 14.8163 19.5634 14.6418C19.5704 14.4671 19.5736 14.2822 19.5736 14.0873C19.5736 13.8924 19.5615 13.7396 19.5376 13.6287C19.5141 13.5179 19.4778 13.4104 19.43 13.3061C19.382 13.202 19.3118 13.1214 19.2196 13.0642C19.1272 13.0071 19.0123 12.9617 18.8755 12.9281C18.5127 12.8475 18.0505 12.8039 17.489 12.7971C16.2157 12.7837 15.3975 12.8644 15.0346 13.0391C14.8909 13.1129 14.7608 13.2138 14.6445 13.3414C14.5212 13.4893 14.504 13.57 14.593 13.5832C15.0038 13.6436 15.2947 13.7881 15.4658 14.0166L15.5275 14.1377C15.5755 14.225 15.6234 14.3796 15.6714 14.6013C15.7192 14.8231 15.7501 15.0683 15.7637 15.337C15.7979 15.8276 15.7979 16.2476 15.7637 16.597C15.7295 16.9465 15.6971 17.2186 15.6662 17.4134C15.6353 17.6083 15.5891 17.7662 15.5275 17.8872C15.4658 18.0081 15.4248 18.082 15.4042 18.1089C15.3837 18.1357 15.3666 18.1526 15.353 18.1593C15.264 18.1927 15.1714 18.2098 15.0757 18.2098C14.9797 18.2098 14.8634 18.1627 14.7265 18.0686C14.5896 17.9744 14.4476 17.8451 14.3004 17.6805C14.1532 17.5158 13.9871 17.2856 13.8022 16.99C13.6174 16.6944 13.4257 16.345 13.2272 15.9418L13.0629 15.6494C12.9602 15.4613 12.8199 15.1874 12.6419 14.828C12.4638 14.4684 12.3064 14.1206 12.1695 13.7846C12.1148 13.6435 12.0326 13.536 11.9231 13.4621L11.8717 13.4318C11.8375 13.405 11.7827 13.3765 11.7074 13.3461C11.632 13.3158 11.5534 13.294 11.4712 13.2807L8.65737 13.3007C8.36983 13.3007 8.17474 13.3646 8.07201 13.4923L8.0309 13.5527C8.01036 13.5864 8 13.6401 8 13.7141C8 13.788 8.02054 13.8787 8.06165 13.9862C8.47242 14.9337 8.91912 15.8476 9.40175 16.7279C9.88438 17.6081 10.3038 18.3172 10.6597 18.8545C11.0157 19.3921 11.3785 19.8996 11.7483 20.3765C12.118 20.8537 12.3627 21.1595 12.4825 21.2938C12.6023 21.4283 12.6965 21.529 12.765 21.5962L13.0217 21.8381C13.186 21.9993 13.4273 22.1925 13.7457 22.4176C14.0641 22.6428 14.4167 22.8645 14.8035 23.0831C15.1904 23.3013 15.6404 23.4794 16.154 23.6171C16.6674 23.755 17.1672 23.8103 17.6533 23.7836H18.8343C19.0738 23.7632 19.2553 23.6894 19.3787 23.5618L19.4195 23.5113C19.447 23.4711 19.4727 23.4088 19.4964 23.325C19.5205 23.2409 19.5324 23.1484 19.5324 23.0478C19.5254 22.7589 19.5478 22.4985 19.599 22.2668C19.6502 22.035 19.7085 21.8603 19.7738 21.7426C19.839 21.6251 19.9126 21.5258 19.9945 21.4454C20.0766 21.3648 20.1351 21.316 20.1694 21.2992C20.2035 21.2823 20.2307 21.2708 20.2512 21.2639C20.4155 21.2102 20.6089 21.2622 20.8316 21.4202C21.0542 21.5782 21.2629 21.7732 21.4581 22.0049C21.6533 22.2369 21.8877 22.4971 22.1615 22.786C22.4355 23.075 22.675 23.2899 22.8803 23.4312L23.0857 23.5521C23.2228 23.6328 23.4008 23.7067 23.6199 23.7739C23.8386 23.841 24.0303 23.8579 24.1948 23.8243L26.8238 23.784C27.0837 23.784 27.2861 23.7417 27.4296 23.6579C27.5734 23.574 27.6588 23.4814 27.6864 23.3808C27.7138 23.28 27.7153 23.1657 27.6916 23.0379C27.6673 22.9104 27.6432 22.8212 27.6193 22.7709Z" fill="white" />
	</g>
	<defs>
		<clipPath id="clip0">
			<rect width="20" height="20" fill="white" transform="translate(8 8)" />
		</clipPath>
	</defs>
</svg>
