<svg viewBox="0 0 36 36" fill="none" xmlns="http://www.w3.org/2000/svg">
	<rect width="36" height="36" rx="18" fill="#FF0000" />
	<path d="M26.2984 13.0301C25.6487 12.2984 24.4491 12 22.1581 12H13.8418C11.4983 12 10.2784 12.3177 9.6311 13.0967C9 13.8562 9 14.9752 9 16.524V19.476C9 22.4766 9.7488 24 13.8418 24H22.1581C24.1449 24 25.2458 23.7366 25.958 23.0909C26.6884 22.4288 27 21.3477 27 19.476V16.524C27 14.8907 26.9512 13.765 26.2984 13.0301ZM20.5561 18.4076L16.7797 20.2772C16.6952 20.319 16.6029 20.3398 16.5107 20.3398C16.4063 20.3398 16.3021 20.3131 16.2099 20.2602C16.0361 20.1605 15.9301 19.9821 15.9301 19.7897V16.0624C15.9301 15.8704 16.0359 15.6921 16.2092 15.5924C16.3827 15.4926 16.5984 15.4858 16.7783 15.5743L20.5547 17.4319C20.7469 17.5264 20.8675 17.7143 20.8678 17.9193C20.868 18.1245 20.7479 18.3126 20.5561 18.4076Z" fill="white" />
</svg>
