<svg width="40" height="40" viewBox="0 0 40 40" fill="none" xmlns="http://www.w3.org/2000/svg">
<rect x="0.5" y="0.5" width="39" height="39" rx="3.5" stroke="#E0E0E0"/>
<g clip-path="url(#clip0)">
<path d="M30.993 25.0166C30.9661 24.9596 30.941 24.9124 30.9178 24.8746C30.5322 24.193 29.7954 23.3565 28.7078 22.3646L28.6849 22.3419L28.6733 22.3308L28.6617 22.3194H28.65C28.1564 21.8575 27.8439 21.547 27.713 21.388C27.4734 21.0851 27.4198 20.7786 27.5508 20.468C27.6432 20.2334 27.9906 19.7377 28.592 18.9805C28.9084 18.5792 29.159 18.2575 29.344 18.0152C30.6786 16.2738 31.2571 15.1611 31.0797 14.6765L31.0107 14.5632C30.9643 14.4951 30.8449 14.4327 30.6522 14.3758C30.4591 14.319 30.2125 14.3097 29.9116 14.3475L26.5793 14.3701C26.5254 14.3513 26.4483 14.3531 26.3479 14.3758C26.2476 14.3986 26.1974 14.41 26.1974 14.41L26.1394 14.4384L26.0934 14.4726C26.0548 14.4952 26.0124 14.5349 25.9661 14.5917C25.92 14.6483 25.8814 14.7147 25.8507 14.7904C25.4879 15.7065 25.0754 16.5582 24.6126 17.3456C24.3271 17.815 24.065 18.2219 23.8256 18.5664C23.5866 18.9108 23.386 19.1645 23.2241 19.3272C23.062 19.49 22.9158 19.6204 22.7843 19.7189C22.6531 19.8175 22.553 19.8591 22.4837 19.8439C22.4142 19.8287 22.3488 19.8135 22.2868 19.7984C22.1789 19.7303 22.0921 19.6375 22.0266 19.5202C21.9609 19.4029 21.9167 19.2552 21.8934 19.0773C21.8704 18.8992 21.8569 18.7461 21.853 18.6173C21.8493 18.4887 21.851 18.3068 21.8589 18.0722C21.8669 17.8374 21.8704 17.6785 21.8704 17.5952C21.8704 17.3075 21.8762 16.9952 21.8877 16.6583C21.8993 16.3214 21.9088 16.0544 21.9167 15.8578C21.9246 15.6609 21.9282 15.4527 21.9282 15.2331C21.9282 15.0135 21.9146 14.8413 21.8877 14.7164C21.8611 14.5915 21.8202 14.4704 21.7664 14.3529C21.7123 14.2356 21.6332 14.1448 21.5293 14.0804C21.4252 14.016 21.2958 13.965 21.1417 13.927C20.7329 13.8362 20.2122 13.7871 19.5796 13.7794C18.145 13.7643 17.2231 13.8553 16.8143 14.0521C16.6524 14.1353 16.5058 14.2489 16.3747 14.3927C16.2358 14.5593 16.2165 14.6502 16.3167 14.6652C16.7796 14.7332 17.1073 14.896 17.3001 15.1534L17.3696 15.2898C17.4237 15.3882 17.4777 15.5624 17.5317 15.8122C17.5856 16.062 17.6205 16.3384 17.6358 16.641C17.6743 17.1938 17.6743 17.667 17.6358 18.0606C17.5972 18.4544 17.5607 18.761 17.5259 18.9805C17.4911 19.2001 17.439 19.378 17.3696 19.5142C17.3001 19.6505 17.2539 19.7338 17.2307 19.764C17.2076 19.7943 17.1883 19.8133 17.173 19.8208C17.0727 19.8585 16.9684 19.8777 16.8605 19.8777C16.7524 19.8777 16.6214 19.8246 16.4672 19.7186C16.313 19.6126 16.1529 19.4669 15.9871 19.2814C15.8212 19.0958 15.6341 18.8365 15.4258 18.5034C15.2176 18.1704 15.0016 17.7767 14.7779 17.3225L14.5928 16.993C14.4771 16.7811 14.3191 16.4725 14.1185 16.0676C13.9179 15.6624 13.7405 15.2706 13.5863 14.892C13.5246 14.733 13.432 14.612 13.3086 14.5287L13.2507 14.4945C13.2122 14.4643 13.1504 14.4322 13.0657 14.398C12.9808 14.3638 12.8922 14.3393 12.7995 14.3243L9.62931 14.3468C9.30535 14.3468 9.08554 14.4189 8.9698 14.5628L8.92348 14.6308C8.90034 14.6687 8.88867 14.7293 8.88867 14.8126C8.88867 14.8959 8.91181 14.9981 8.95813 15.1191C9.42093 16.1867 9.92421 17.2163 10.468 18.2081C11.0117 19.1999 11.4842 19.9988 11.8852 20.6041C12.2863 21.2098 12.6951 21.7816 13.1117 22.3189C13.5282 22.8565 13.804 23.201 13.9389 23.3524C14.074 23.5039 14.18 23.6174 14.2572 23.693L14.5465 23.9656C14.7316 24.1472 15.0034 24.3649 15.3621 24.6185C15.7209 24.8722 16.1181 25.122 16.5539 25.3682C16.9898 25.6141 17.4969 25.8148 18.0754 25.9699C18.6539 26.1252 19.217 26.1876 19.7647 26.1575H21.0952C21.3651 26.1346 21.5696 26.0514 21.7086 25.9076L21.7546 25.8507C21.7856 25.8055 21.8146 25.7352 21.8412 25.6408C21.8683 25.5461 21.8818 25.4419 21.8818 25.3286C21.8739 25.003 21.8991 24.7097 21.9568 24.4486C22.0144 24.1875 22.0802 23.9906 22.1538 23.858C22.2272 23.7256 22.3101 23.6138 22.4024 23.5231C22.4949 23.4324 22.5608 23.3774 22.5994 23.3585C22.6379 23.3394 22.6686 23.3265 22.6917 23.3187C22.8768 23.2581 23.0947 23.3168 23.3456 23.4948C23.5963 23.6728 23.8314 23.8925 24.0514 24.1536C24.2713 24.4149 24.5354 24.708 24.8439 25.0336C25.1526 25.3591 25.4224 25.6012 25.6538 25.7605L25.8851 25.8967C26.0396 25.9876 26.2401 26.0709 26.487 26.1466C26.7334 26.2222 26.9493 26.2412 27.1348 26.2034L30.0967 26.158C30.3896 26.158 30.6176 26.1104 30.7792 26.0159C30.9412 25.9214 31.0374 25.817 31.0686 25.7037C31.0994 25.5901 31.1011 25.4614 31.0744 25.3174C31.047 25.1737 31.0199 25.0732 30.993 25.0166Z" fill="#4F4F4F"/>
</g>
<defs>
<clipPath id="clip0">
<rect width="22.2222" height="22.2222" fill="white" transform="translate(8.88867 8.88892)"/>
</clipPath>
</defs>
</svg>
