<svg viewBox="0 0 36 36" fill="none" xmlns="http://www.w3.org/2000/svg">
	<rect width="36" height="36" rx="18" fill="#3E3E3E" />
	<path fill-rule="evenodd" clip-rule="evenodd" d="M19.5429 19.5429C18.2857 20.84 18.2 22.4571 18.0857 26C21.3886 26 23.6686 25.9886 24.8457 24.8457C25.9886 23.6686 26 21.28 26 18.0857C22.4571 18.2 20.84 18.2857 19.5429 19.5429ZM17.9143 26C14.6114 26 12.3314 25.9886 11.1543 24.8457C10.0114 23.6686 10 21.28 10 18.0857C13.5429 18.2 15.16 18.2857 16.4571 19.5429C17.7143 20.84 17.8 22.4571 17.9143 26ZM16.4571 16.4571C15.16 17.7143 13.5429 17.8 10 17.9143C10 14.72 10.0114 12.3314 11.1543 11.1543C12.3314 10.0114 14.6171 10 17.9143 10C17.8 13.5429 17.7143 15.16 16.4571 16.4571ZM18.0857 10C18.1943 13.5429 18.2857 15.16 19.5429 16.4571C20.84 17.7143 22.4571 17.8 26 17.9143C26 14.72 25.9886 12.3314 24.8457 11.1543C23.6686 10.0114 21.3886 10 18.0857 10Z" fill="white" />
</svg>
