<svg viewBox="0 0 36 36" fill="none" xmlns="http://www.w3.org/2000/svg">
	<rect y="0.000488281" width="36" height="36" rx="18" fill="#EE8207" />
	<g clip-path="url(#clip0)">
		<path d="M22.8425 17.8125C22.1507 17.8125 20.7671 19.1709 18 19.1709C15.2328 19.1709 13.8493 17.8125 13.1575 17.8125C12.3938 17.8125 11.7739 18.4211 11.7739 19.1709C11.7739 19.8501 12.1669 20.1768 12.4657 20.3486C13.2855 20.8193 15.9246 21.8877 15.9246 21.8877L12.9845 25.5812C12.9845 25.5812 12.4657 26.2163 12.4657 26.6422C12.4657 27.392 13.0855 28.0006 13.8493 28.0006C14.5556 28.0006 14.8759 27.555 14.8759 27.555C14.8759 27.555 17.9951 23.9206 18 23.9253C18.0048 23.9206 21.1241 27.555 21.1241 27.555C21.1241 27.555 21.4444 28.0006 22.1507 28.0006C22.9144 28.0006 23.5342 27.392 23.5342 26.6422C23.5342 26.2163 23.0154 25.5812 23.0154 25.5812L20.0753 21.8877C20.0753 21.8877 22.7145 20.8193 23.5342 20.3486C23.8331 20.1768 24.226 19.8501 24.226 19.1709C24.226 18.4211 23.6062 17.8125 22.8425 17.8125Z" fill="white" />
		<path d="M18.0001 8.16357C15.2836 8.16357 13.0815 10.3657 13.0815 13.0821C13.0815 15.7985 15.2836 18.0006 18.0001 18.0006C20.7158 18.0006 22.9186 15.7985 22.9186 13.0821C22.9186 10.3657 20.7158 8.16357 18.0001 8.16357ZM18.0001 15.5413C16.6418 15.5413 15.5408 14.441 15.5408 13.0821C15.5408 11.7239 16.6418 10.6228 18.0001 10.6228C19.3576 10.6228 20.4593 11.7239 20.4593 13.0821C20.4593 14.441 19.3576 15.5413 18.0001 15.5413Z" fill="white" />
	</g>
	<defs>
		<clipPath id="clip0">
			<rect width="20" height="20" fill="white" transform="translate(8 8.00049)" />
		</clipPath>
	</defs>
</svg>
