<svg width="40" height="40" viewBox="0 0 40 40" fill="none" xmlns="http://www.w3.org/2000/svg">
<rect x="0.5" y="0.5" width="39" height="39" rx="3.5" stroke="#E0E0E0"/>
<g clip-path="url(#clip0)">
<path d="M25.3804 19.791C24.6118 19.791 23.0744 21.3004 19.9999 21.3004C16.9253 21.3004 15.388 19.791 14.6193 19.791C13.7707 19.791 13.082 20.4672 13.082 21.3004C13.082 22.055 13.5186 22.418 13.8507 22.6089C14.7615 23.1319 17.6939 24.319 17.6939 24.319L14.4272 28.4229C14.4272 28.4229 13.8507 29.1286 13.8507 29.6018C13.8507 30.4349 14.5394 31.1111 15.388 31.1111C16.1728 31.1111 16.5286 30.616 16.5286 30.616C16.5286 30.616 19.9945 26.5778 19.9999 26.583C20.0052 26.5778 23.4711 30.616 23.4711 30.616C23.4711 30.616 23.827 31.1111 24.6118 31.1111C25.4603 31.1111 26.149 30.4349 26.149 29.6018C26.149 29.1286 25.5726 28.4229 25.5726 28.4229L22.3058 24.319C22.3058 24.319 25.2382 23.1319 26.149 22.6089C26.4811 22.418 26.9177 22.055 26.9177 21.3004C26.9177 20.4672 26.229 19.791 25.3804 19.791Z" fill="#4F4F4F"/>
<path d="M20.0002 9.07007C16.9819 9.07007 14.5352 11.5168 14.5352 14.5351C14.5352 17.5533 16.9819 20.0001 20.0002 20.0001C23.0177 20.0001 25.4652 17.5533 25.4652 14.5351C25.4652 11.5168 23.0177 9.07007 20.0002 9.07007ZM20.0002 17.2676C18.491 17.2676 17.2677 16.045 17.2677 14.5351C17.2677 13.026 18.491 11.8026 20.0002 11.8026C21.5086 11.8026 22.7327 13.026 22.7327 14.5351C22.7327 16.045 21.5086 17.2676 20.0002 17.2676Z" fill="#4F4F4F"/>
</g>
<defs>
<clipPath id="clip0">
<rect width="22.2222" height="22.2222" fill="white" transform="translate(8.88867 8.88892)"/>
</clipPath>
</defs>
</svg>
