<svg width="40" height="40" viewBox="0 0 40 40" fill="none" xmlns="http://www.w3.org/2000/svg">
<rect x="0.5" y="0.5" width="39" height="39" rx="3.5" stroke="#E0E0E0"/>
<path fill-rule="evenodd" clip-rule="evenodd" d="M21.7145 21.7143C20.3177 23.1555 20.2224 24.9524 20.0955 28.8889C23.7653 28.8889 26.2986 28.8762 27.6066 27.6063C28.8764 26.2984 28.8891 23.6444 28.8891 20.0952C24.9526 20.2222 23.1558 20.3174 21.7145 21.7143ZM19.905 28.8889C16.2351 28.8889 13.7018 28.8762 12.3939 27.6063C11.124 26.2984 11.1113 23.6444 11.1113 20.0952C15.0478 20.2222 16.8447 20.3174 18.2859 21.7143C19.6828 23.1555 19.778 24.9524 19.905 28.8889ZM18.2859 18.2857C16.8447 19.6825 15.0478 19.7778 11.1113 19.9047C11.1113 16.3555 11.124 13.7016 12.3939 12.3936C13.7018 11.1238 16.2415 11.1111 19.905 11.1111C19.778 15.0476 19.6828 16.8444 18.2859 18.2857ZM20.0955 11.1111C20.2161 15.0476 20.3177 16.8444 21.7145 18.2857C23.1558 19.6825 24.9526 19.7778 28.8891 19.9047C28.8891 16.3555 28.8764 13.7016 27.6066 12.3936C26.2986 11.1238 23.7653 11.1111 20.0955 11.1111Z" fill="#4F4F4F"/>
</svg>
