<svg width="40" height="40" viewBox="0 0 40 40" fill="none" xmlns="http://www.w3.org/2000/svg">
<rect x="0.5" y="0.5" width="39" height="39" rx="3.5" stroke="#E0E0E0"/>
<path d="M29.2204 14.4778C28.4986 13.6649 27.1657 13.3333 24.6201 13.3333H15.3797C12.7759 13.3333 11.4205 13.6863 10.7012 14.5518C10 15.3957 10 16.6391 10 18.3599V21.6399C10 24.9739 10.832 26.6666 15.3797 26.6666H24.6201C26.8277 26.6666 28.0509 26.3739 28.8422 25.6565C29.6538 24.9208 30 23.7196 30 21.6399V18.3599C30 16.5451 29.9458 15.2944 29.2204 14.4778ZM22.8401 20.4528L18.6441 22.5301C18.5503 22.5766 18.4477 22.5997 18.3452 22.5997C18.2292 22.5997 18.1135 22.57 18.011 22.5113C17.8179 22.4005 17.7001 22.2023 17.7001 21.9885V17.8471C17.7001 17.6337 17.8176 17.4356 18.0103 17.3248C18.203 17.2139 18.4426 17.2063 18.6426 17.3047L22.8386 19.3687C23.0521 19.4737 23.1861 19.6825 23.1864 19.9103C23.1867 20.1383 23.0532 20.3473 22.8401 20.4528Z" fill="#4F4F4F"/>
</svg>
